<?xml version="1.0" encoding="UTF-8"?>
<!DOCTYPE svg PUBLIC "-//W3C//DTD SVG 1.1//EN" "http://www.w3.org/Graphics/SVG/1.1/DTD/svg11.dtd">
<!-- Creator: CorelDRAW -->
<svg xmlns="http://www.w3.org/2000/svg" xml:space="preserve" width="47.6251mm" height="46.3331mm" version="1.1" style="shape-rendering:geometricPrecision; text-rendering:geometricPrecision; image-rendering:optimizeQuality; fill-rule:evenodd; clip-rule:evenodd"
viewBox="0 0 516 502"
 xmlns:xlink="http://www.w3.org/1999/xlink"
 xmlns:xodm="http://www.corel.com/coreldraw/odm/2003">
 <defs>
  <style type="text/css">
   <![CDATA[
    .fil0 {fill:white}
   ]]>
  </style>
 </defs>
 <g id="Camada_x0020_1">
  <metadata id="CorelCorpID_0Corel-Layer"/>
  <path class="fil0" d="M-0 253.88c0,21.37 1.6,33.9 4.96,54.35 1.79,10.88 4.88,20.61 8.14,30.91 1.08,3.41 2.33,6.57 3.64,10.1 6.68,17.98 15.91,35.61 26.75,51.37 1.05,1.52 1.39,2.33 2.58,3.93l9.95 13.19c0.64,0.75 1.11,1.31 1.63,1.98l12.2 13.84c1.34,1.59 1.47,1.98 3,3.5 2.17,2.16 4.33,4.61 6.6,6.42l27.58 23.05 17.13 11.08c2.21,1.19 2.13,1.55 3.88,2.63l13.12 7.13c9.92,4.73 29.18,14.6 39.65,14.6 6.77,0 11.3,-4.66 14.16,-8.99 5.96,-9 3.92,-33.17 3.92,-44.54 0,-2.9 -1.78,-1.97 -4.28,-1.51 -26.08,4.76 -55.87,1.76 -74.86,-16.28 -5.08,-4.82 -10.06,-9.91 -13.56,-16.1l-11.87 -23.57c-4.12,-7.47 -10.53,-13.92 -17.26,-18.91 -1.59,-1.18 -2.27,-1.45 -3.74,-2.77l-1.12 -1.05c-12.39,-11.2 9.31,-13.8 27.62,-4.48l9.88 7.48c8.11,6.94 11.62,17.55 20.05,24.07 3.92,3.02 6.03,5.21 10.53,7.55 15.76,8.19 32.25,9.62 49.83,6.41 2.81,-0.51 6.5,-1.61 8.77,-2.81 0,-9.32 0.06,-19.12 2.78,-27.6 0.95,-2.94 2.3,-4.12 3,-7.12 -4.07,-0.95 -8.42,-1.38 -12.71,-2.48 -9.83,-2.53 -19.62,-5.07 -28.66,-8.95 -13.5,-5.8 -19.67,-8.58 -32.46,-16.73l-7.16 -5.14c-0.84,-0.5 -1.34,-0.78 -2.13,-1.48l-0.72 -0.73c-0.11,-0.11 -0.24,-0.27 -0.35,-0.38l-9.01 -8.34c-2.56,-2.81 -4.62,-5.08 -7.13,-8.06l-12.21 -18.9c-3.42,-5.67 -6.86,-14.98 -8.57,-21.81 -0.99,-3.95 -1.91,-9.25 -2.38,-12.81l-1.65 -25.11c0,-7.77 2.07,-18.6 3.55,-26.1 1.83,-9.26 5.21,-18.92 9.56,-27.33 6.14,-11.89 12.36,-20.72 21.61,-30.47 -0.74,-3.19 -4.8,-8.95 -6.24,-14.74 -4.83,-19.33 -3.46,-43.02 7.64,-59.81 3.69,-5.58 12.69,-2.02 18.01,-1.29 13.65,1.89 26.91,7.29 38.13,14.67l18.6 14.68c1.57,1.67 1.89,2.69 3.42,3.81l14.03 -4.06c11.18,-2.54 19.84,-3.52 31.43,-4.73 11.27,-1.18 24.48,-1.98 35.97,-0.31 7.93,1.15 16.29,1.18 24.1,2.67l14.71 3.38c12.93,3.29 5.25,3.89 17.87,-7.13 5.12,-4.47 11.29,-7.76 16.83,-11.38 9.65,-6.3 24.98,-10.09 36.45,-12.01 5.36,-0.9 6.93,-1.15 13.32,-1.15 0.68,2.56 0.93,1.63 2.39,4.11 9.94,16.86 11.46,37 8.05,56.24 -1.12,6.33 -2.92,10.95 -5.38,15.6l3.18 4.05c0.1,0.11 0.26,0.26 0.36,0.37 0.17,0.18 0.8,0.9 1.01,1.16 9.04,11.18 17.16,24.15 21.08,38.24l2.51 7.62c0.27,0.98 0.51,2.3 0.67,2.95 4.03,17.56 3.75,29.33 3.75,47.61 0,3.85 -1.02,5.91 -1.57,10 -1.76,13.06 -6.71,25.4 -12.66,36.53l-3.13 5.55c-0.09,0.12 -0.24,0.28 -0.33,0.39 -5.58,7 -7.63,11.25 -14.84,18.43 -8.32,8.28 -17.87,15.2 -27.83,21.36 -1.63,1.01 -2.52,1.19 -4.33,2.18 -10.78,5.94 -22.86,10.27 -34.58,13.89 -24.34,7.51 -27.48,2.64 -23.31,9.85 1.7,2.93 3.93,16.03 3.98,20.66l-0.03 73.81c0,12.88 -0.36,20.57 8.48,28.4 8.43,7.48 22.1,1.04 30.7,-2.96 8.5,-3.95 17.9,-7.2 25.98,-12.35 6.6,-4.21 13.75,-7.75 20.07,-12.48l9.77 -6.87c1,-0.77 0.77,-0.64 1.19,-0.98l0.79 -0.66c0.17,-0.13 0.64,-0.51 0.81,-0.63l22.62 -19.34c1.57,-1.56 1.88,-1.43 3.37,-3.14l9.27 -10.25c1.58,-1.57 1.51,-1.1 3.24,-3.27l13.96 -17.86c7.03,-7.76 19.06,-30.71 23.8,-40.57 0.83,-1.73 1.38,-2.6 2.18,-4.33l5.38 -13.43c0.68,-2.01 1.27,-2.98 1.96,-4.55 2.93,-6.71 7.18,-22.24 8.76,-30.3 5.86,-29.99 7.42,-52.38 5.07,-83.07 -0.69,-9.06 -2.4,-17.79 -4.23,-26.88l-3.11 -12.8c-1.1,-4 -2.09,-8 -3.37,-11.82 -0.72,-2.15 -1.3,-3.64 -1.95,-6 -3.75,-13.5 -14.45,-36.23 -22.14,-48.02 -1.19,-1.82 -1.74,-2.59 -2.75,-4.48 -1.25,-2.33 -1.75,-2.58 -3.14,-4.82l-33.35 -41.15 -32.96 -27.8c-6.94,-5.34 -14.82,-10.32 -22.5,-14.39l-21.13 -10.7c-1.95,-0.91 -3.11,-1.21 -5.14,-2.09 -17.94,-7.75 -34.74,-12.47 -53.86,-16.3 -2.02,-0.4 -4.52,-0.58 -6.87,-1.09 -3.1,-0.67 -3.25,-0.72 -6.81,-1.15 -28.03,-3.4 -52.08,-2.4 -79.91,2.09 -8.88,1.43 -20.15,3.49 -28.61,6.83l-42.83 17.21 -15.27 8.6c-1.92,1.1 -3.31,1.7 -5.04,2.91 -1.71,1.19 -3,1.97 -4.75,3.2l-13.84 10.03c-0.81,0.65 -1.18,0.81 -2.12,1.5l-17.06 14.77c-1.25,1.24 -1.02,0.77 -2.41,1.93 -7.88,6.54 -16.93,17.5 -23.43,25.75l-27.66 42.5c-13.76,25.76 -23.15,55.79 -26.66,84.73 -1.11,9.14 -2.03,19.33 -2.03,29.79z"/>
 </g>
</svg>
