<?xml version="1.0" encoding="UTF-8"?>
<!DOCTYPE svg PUBLIC "-//W3C//DTD SVG 1.1//EN" "http://www.w3.org/Graphics/SVG/1.1/DTD/svg11.dtd">
<!-- Creator: CorelDRAW -->
<svg xmlns="http://www.w3.org/2000/svg" xml:space="preserve" width="8.5149mm" height="8.5149mm" version="1.1" style="shape-rendering:geometricPrecision; text-rendering:geometricPrecision; image-rendering:optimizeQuality; fill-rule:evenodd; clip-rule:evenodd"
viewBox="0 0 81.53 81.53"
 xmlns:xlink="http://www.w3.org/1999/xlink"
 xmlns:xodm="http://www.corel.com/coreldraw/odm/2003">
 <defs>
  <style type="text/css">
   <![CDATA[
    .fil0 {fill:none}
    .fil1 {fill:white}
    .fil2 {fill:white;fill-rule:nonzero}
   ]]>
  </style>
 </defs>
 <g id="Camada_x0020_1">
  <metadata id="CorelCorpID_0Corel-Layer"/>
  <polygon class="fil0" points="-0,81.53 81.53,81.53 81.53,0 -0,0 "/>
  <path class="fil1" d="M42.01 4.66c-2.46,0 -4.67,0.54 -6.67,1.78 -0.6,0.37 -0.72,0.09 -2.06,-0.32 -9.91,-3.09 -20.02,-1.5 -20.02,11.64 0,4.78 5.14,30.44 12.66,27.6 1.73,-0.65 3.65,-3.62 5.09,-5.1 0.66,-0.69 0.97,-1.12 1.66,-1.78 0.58,0.03 1.09,0.38 1.67,0.55 0.34,0.1 0.59,0.15 0.92,0.19 0.1,0.01 0.36,0.03 0.42,0.05l0.49 0.2c-0.67,1.07 -1.3,1.8 -2.55,2.18 -1.27,0.38 -2.63,0.41 -3.65,1.12 -3.1,2.16 4.27,5.51 8.98,2.36 0.38,-0.26 0.65,-0.56 1.03,-0.71 0,3.16 -0.09,9.35 0.74,12.05 1.01,3.26 3.56,5.43 7.85,4.53 6.74,-1.41 6.72,-5.68 7.49,-11.65 0.19,-1.51 0.36,-4.32 0.72,-5.65 3.14,1.01 8.66,-0.35 10.87,-2.74 0.88,-0.95 1.35,-2.71 -0.74,-2.71 -2.04,0 -4.3,1.22 -7.13,0.03l2.86 -5.04c2.47,-4.73 8.34,-18.61 3.98,-23.65 -4.69,-5.44 -12.18,-6.64 -18.9,-4.76 -1.56,0.44 -0.95,0.41 -2.59,0.12 -0.98,-0.17 -2.17,-0.28 -3.13,-0.28zm-11.72 15.26c0.41,-0.08 1.68,-0.75 2.35,-0.98 2.76,-0.93 5.98,-0.97 7.25,2.16 0.57,1.41 0.88,4.42 0.93,6.08 0.16,5.4 -2.25,7.48 -2.93,10.96 2.57,-0.25 3.76,1.61 3.69,4.06 -0.08,2.52 -0.07,5.23 0.03,7.7 0.09,2.24 0.09,5.08 0.95,6.95 0.88,1.91 2.39,3.13 5.19,2.72 5.67,-0.85 5.87,-3.78 6.6,-9.21 0.32,-2.36 0.6,-4.64 0.85,-7.02 0.35,-3.22 -0.19,-4.13 2.61,-5.29 -0.24,-0.59 -1.17,-1.55 -1.62,-2.32 -0.8,-1.37 -3.52,-6.72 -4.02,-8 -0.73,-1.88 -1.58,-4.34 -0.95,-6.52 0.88,-3.05 4.13,-3.18 6.94,-3.01 -0.67,-2.91 -3.28,-6.01 -5.46,-8.05 -3.41,-3.18 -10.3,-5.13 -15.21,-3.04 -4.7,1.99 -7.06,7.86 -7.19,12.82zm-15.46 -2.28c0,5.39 2.95,15.46 4.82,19.91 0.87,2.08 3.23,7.34 5.78,6.34 0.51,-0.2 1.33,-1.02 1.65,-1.42 1.2,-1.5 3.12,-3.5 4.32,-4.95 -0.55,-0.83 -1.02,-0.72 -2.05,-2.69 -1.71,-3.28 -0.56,-6.03 -0.52,-9.46l-0.21 -4.05c-0.03,-3.63 1.02,-7.75 2.8,-10.81 0.69,-1.18 1.36,-1.75 2.04,-2.7 -3.74,-0.74 -3.9,-1.42 -8.77,-1.42 -6.83,0 -9.88,4.52 -9.88,11.26zm34.45 -11.53c0.86,0.77 3.72,1.25 7.41,6.06 1.12,1.46 2.31,3.5 2.92,5.3 0.54,1.58 0.34,3.2 0.09,4.85 -0.29,1.85 -0.39,3.12 -0.18,5.06 0.28,2.51 0.65,4.8 -0.26,7.27 -0.28,0.78 -0.94,1.48 -0.49,1.95 0.17,-0.02 0.07,0.13 0.39,-0.33 0.15,-0.22 0.19,-0.31 0.33,-0.54 0.23,-0.38 0.43,-0.73 0.63,-1.09 1.32,-2.33 2.48,-4.67 3.47,-7.21 1.41,-3.61 3.58,-10.4 2.88,-14.63 -0.23,-1.38 -0.49,-1.56 -1.17,-2.38 -2.27,-2.72 -5.76,-4.35 -9.5,-4.73 -1.5,-0.15 -5.24,-0.13 -6.52,0.41zm-19.06 15.77c0.07,1.87 0.18,3.6 0.07,5.47 -0.22,3.9 -0.94,5.83 1.98,8.75 1.06,1.06 2.21,1.5 4.1,1.67 1.05,-4.51 3.58,-5.95 2.72,-12.79 -0.3,-2.4 -0.48,-4.7 -2.87,-4.98 -2.32,-0.27 -4.6,0.99 -6.01,1.88zm27.25 12.84c0.02,-0.02 0.05,-0.09 0.06,-0.07l0.29 -0.58c0.09,-0.25 0.16,-0.51 0.22,-0.75 0.76,-3.14 -0.56,-5.82 -0.09,-9.78 0.11,-0.95 0.57,-2.87 0.34,-3.73 -5.34,-0.46 -6.75,1.21 -5.07,6.28 0.61,1.83 2.1,4.73 3.1,6.47 0.34,0.6 0.8,1.71 1.16,2.17zm-26.39 9.31c0.71,0.56 2.19,0.83 3.2,0.83 2.13,0 3.18,-0.52 4.47,-1.51 2.23,-1.71 0.96,-3.35 0.15,-3.6 -0.9,-0.27 -1.36,0.59 -1.78,1.11 -1.64,1.99 -1.95,2.12 -4.88,2.74 -0.19,0.04 -0.41,0.08 -0.59,0.13 -0.07,0.02 -0.22,0.07 -0.27,0.1 -0.39,0.19 -0.21,0.12 -0.3,0.2zm25.8 -1.99c2.09,1.11 7.85,-0.01 9.55,-2.15 -2.05,0.22 -3.91,0.81 -6.09,0.27 -0.55,-0.14 -3.46,-2.14 -3.46,1.88zm-22.13 -20.76c-0.31,1.72 2.49,2.45 3.02,0.66 -0.4,-1.11 -2.09,-1.06 -3.02,-0.66zm19.15 0.05c0.37,1.46 2.75,1.09 2.8,-0.37 -0.75,-0.69 -2.29,-0.45 -2.8,0.37zm-18.92 0.1c0.01,1.41 2.03,1.81 2.51,0.51 -0.24,-0.38 -0.49,-0.52 -1.01,-0.62 -0.36,-0.07 -1.29,-0.07 -1.5,0.11zm2.22 0.51c-0.51,-0.47 -1.2,-0.45 -1.95,-0.35 0.19,0.93 1.54,1.23 1.95,0.35z"/>
  <path class="fil2" d="M5 72.88l0 -8.59 3.56 0c0.37,0 0.71,0.08 1.02,0.24 0.31,0.16 0.58,0.36 0.81,0.62 0.23,0.25 0.4,0.54 0.53,0.87 0.12,0.32 0.19,0.65 0.19,0.98 0,0.36 -0.06,0.7 -0.18,1.02 -0.12,0.33 -0.28,0.62 -0.5,0.87 -0.22,0.25 -0.48,0.45 -0.78,0.61 -0.3,0.15 -0.64,0.23 -1.01,0.23l-2.8 0 0 3.17 -0.83 0zm0.83 -3.92l2.75 0c0.25,0 0.48,-0.05 0.68,-0.16 0.21,-0.11 0.38,-0.25 0.53,-0.44 0.14,-0.18 0.26,-0.39 0.34,-0.63 0.08,-0.24 0.12,-0.49 0.12,-0.74 0,-0.27 -0.05,-0.52 -0.14,-0.76 -0.09,-0.24 -0.22,-0.45 -0.38,-0.62 -0.16,-0.18 -0.34,-0.32 -0.56,-0.42 -0.21,-0.1 -0.44,-0.15 -0.67,-0.15l-2.68 0 0 3.92z"/>
  <path id="_1" class="fil2" d="M14.88 73c-0.46,0 -0.88,-0.09 -1.26,-0.26 -0.38,-0.17 -0.71,-0.41 -0.99,-0.71 -0.28,-0.3 -0.49,-0.65 -0.65,-1.04 -0.15,-0.4 -0.23,-0.81 -0.23,-1.25 0,-0.44 0.08,-0.86 0.24,-1.26 0.16,-0.4 0.38,-0.74 0.65,-1.04 0.28,-0.3 0.61,-0.54 0.99,-0.71 0.38,-0.18 0.8,-0.27 1.25,-0.27 0.45,0 0.87,0.09 1.25,0.27 0.38,0.18 0.71,0.42 0.99,0.71 0.28,0.3 0.5,0.65 0.65,1.04 0.16,0.4 0.24,0.81 0.24,1.26 0,0.44 -0.08,0.85 -0.24,1.25 -0.16,0.4 -0.38,0.74 -0.65,1.04 -0.28,0.3 -0.61,0.53 -0.99,0.71 -0.38,0.17 -0.8,0.26 -1.25,0.26zm-2.29 -3.24c0,0.35 0.06,0.68 0.18,0.99 0.12,0.3 0.28,0.57 0.48,0.8 0.21,0.23 0.45,0.41 0.73,0.54 0.28,0.13 0.58,0.19 0.89,0.19 0.32,0 0.61,-0.07 0.89,-0.2 0.28,-0.13 0.52,-0.31 0.73,-0.54 0.21,-0.23 0.38,-0.5 0.5,-0.81 0.12,-0.31 0.18,-0.64 0.18,-0.99 0,-0.35 -0.06,-0.68 -0.18,-0.99 -0.12,-0.31 -0.29,-0.58 -0.5,-0.81 -0.21,-0.23 -0.45,-0.41 -0.73,-0.54 -0.27,-0.13 -0.57,-0.2 -0.88,-0.2 -0.32,0 -0.61,0.07 -0.89,0.2 -0.28,0.13 -0.52,0.32 -0.73,0.55 -0.2,0.23 -0.37,0.51 -0.49,0.82 -0.12,0.31 -0.18,0.64 -0.18,1z"/>
  <path id="_2" class="fil2" d="M21.46 73c-0.49,0 -0.97,-0.08 -1.44,-0.24 -0.47,-0.16 -0.87,-0.4 -1.21,-0.7l0.37 -0.56c0.36,0.29 0.72,0.51 1.08,0.65 0.37,0.14 0.76,0.22 1.18,0.22 0.51,0 0.91,-0.1 1.22,-0.31 0.3,-0.21 0.45,-0.5 0.45,-0.88 0,-0.18 -0.04,-0.32 -0.12,-0.44 -0.08,-0.12 -0.2,-0.22 -0.36,-0.31 -0.16,-0.09 -0.35,-0.17 -0.59,-0.24 -0.24,-0.07 -0.51,-0.14 -0.83,-0.21 -0.36,-0.09 -0.68,-0.18 -0.94,-0.27 -0.27,-0.09 -0.49,-0.19 -0.66,-0.3 -0.17,-0.11 -0.3,-0.25 -0.39,-0.42 -0.09,-0.17 -0.13,-0.37 -0.13,-0.62 0,-0.32 0.06,-0.59 0.19,-0.84 0.13,-0.24 0.29,-0.44 0.51,-0.6 0.21,-0.16 0.46,-0.28 0.75,-0.36 0.29,-0.08 0.59,-0.12 0.91,-0.12 0.48,0 0.92,0.08 1.32,0.24 0.4,0.16 0.71,0.36 0.96,0.62l-0.4 0.48c-0.23,-0.24 -0.52,-0.42 -0.85,-0.54 -0.34,-0.12 -0.68,-0.18 -1.05,-0.18 -0.22,0 -0.42,0.02 -0.61,0.07 -0.19,0.05 -0.35,0.12 -0.49,0.21 -0.14,0.1 -0.25,0.22 -0.33,0.37 -0.08,0.15 -0.12,0.32 -0.12,0.53 0,0.17 0.03,0.31 0.08,0.41 0.06,0.1 0.15,0.2 0.28,0.27 0.13,0.08 0.29,0.15 0.49,0.21 0.2,0.06 0.44,0.12 0.72,0.19 0.4,0.1 0.76,0.19 1.06,0.29 0.31,0.1 0.56,0.21 0.77,0.34 0.21,0.13 0.36,0.29 0.47,0.47 0.1,0.18 0.16,0.41 0.16,0.68 0,0.58 -0.22,1.04 -0.67,1.38 -0.44,0.34 -1.04,0.51 -1.79,0.51z"/>
  <path id="_3" class="fil2" d="M28.28 72.58c-0.05,0.02 -0.12,0.06 -0.21,0.1 -0.09,0.04 -0.2,0.08 -0.32,0.12 -0.12,0.04 -0.26,0.08 -0.41,0.11 -0.15,0.03 -0.31,0.05 -0.48,0.05 -0.18,0 -0.35,-0.02 -0.51,-0.07 -0.16,-0.05 -0.3,-0.12 -0.42,-0.22 -0.12,-0.1 -0.22,-0.23 -0.29,-0.38 -0.07,-0.15 -0.11,-0.33 -0.11,-0.53l0 -4.51 -0.87 0 0 -0.65 0.87 0 0 -2.13 0.82 0 0 2.13 1.45 0 0 0.65 -1.45 0 0 4.28c0.02,0.23 0.1,0.41 0.24,0.51 0.14,0.11 0.32,0.16 0.52,0.16 0.23,0 0.44,-0.04 0.62,-0.11 0.18,-0.08 0.29,-0.13 0.34,-0.16l0.22 0.67z"/>
  <path id="_4" class="fil2" d="M31.8 72.97c-0.44,0 -0.83,-0.09 -1.19,-0.27 -0.36,-0.18 -0.67,-0.42 -0.93,-0.72 -0.26,-0.3 -0.47,-0.64 -0.61,-1.03 -0.15,-0.39 -0.22,-0.79 -0.22,-1.2 0,-0.44 0.07,-0.85 0.21,-1.25 0.14,-0.4 0.34,-0.75 0.6,-1.05 0.26,-0.3 0.57,-0.54 0.93,-0.71 0.36,-0.18 0.76,-0.27 1.19,-0.27 0.54,0 1.01,0.14 1.4,0.41 0.4,0.27 0.73,0.61 1.02,1.02l0 -1.32 0.74 0 0 6.33c0,0.44 -0.08,0.82 -0.25,1.16 -0.17,0.34 -0.39,0.62 -0.67,0.84 -0.28,0.23 -0.61,0.4 -0.99,0.51 -0.38,0.11 -0.78,0.17 -1.2,0.17 -0.72,0 -1.3,-0.13 -1.74,-0.39 -0.44,-0.26 -0.8,-0.61 -1.08,-1.04l0.51 -0.4c0.25,0.4 0.58,0.7 0.99,0.89 0.41,0.19 0.85,0.28 1.32,0.28 0.31,0 0.6,-0.04 0.88,-0.13 0.28,-0.09 0.52,-0.21 0.73,-0.38 0.21,-0.17 0.37,-0.38 0.49,-0.63 0.12,-0.25 0.18,-0.55 0.18,-0.89l0 -1.25c-0.25,0.4 -0.58,0.72 -1,0.96 -0.42,0.23 -0.85,0.35 -1.31,0.35zm0.23 -0.69c0.24,0 0.48,-0.04 0.71,-0.13 0.23,-0.09 0.45,-0.21 0.64,-0.36 0.19,-0.15 0.35,-0.32 0.48,-0.5 0.13,-0.18 0.21,-0.37 0.25,-0.57l0 -1.95c-0.09,-0.23 -0.21,-0.44 -0.37,-0.63 -0.16,-0.19 -0.33,-0.36 -0.53,-0.5 -0.19,-0.14 -0.4,-0.25 -0.62,-0.33 -0.22,-0.08 -0.45,-0.12 -0.67,-0.12 -0.35,0 -0.67,0.07 -0.94,0.22 -0.27,0.15 -0.51,0.34 -0.7,0.59 -0.19,0.24 -0.34,0.52 -0.44,0.82 -0.1,0.31 -0.15,0.62 -0.15,0.93 0,0.34 0.06,0.66 0.18,0.97 0.12,0.31 0.29,0.57 0.5,0.81 0.21,0.23 0.46,0.41 0.74,0.54 0.29,0.13 0.6,0.2 0.93,0.2z"/>
  <path id="_5" class="fil2" d="M39.85 67.3c-0.56,0.02 -1.04,0.17 -1.45,0.46 -0.41,0.29 -0.7,0.69 -0.87,1.2l0 3.92 -0.82 0 0 -6.31 0.77 0 0 1.51c0.22,-0.44 0.5,-0.81 0.86,-1.11 0.36,-0.29 0.74,-0.44 1.15,-0.44 0.07,0 0.14,0 0.21,0 0.07,0 0.12,0 0.16,0.01l0 0.75z"/>
  <path id="_6" class="fil2" d="M43.71 73c-0.46,0 -0.88,-0.09 -1.27,-0.26 -0.39,-0.17 -0.72,-0.41 -1.01,-0.71 -0.28,-0.3 -0.5,-0.65 -0.66,-1.05 -0.16,-0.4 -0.24,-0.82 -0.24,-1.27 0,-0.44 0.08,-0.86 0.24,-1.25 0.16,-0.39 0.38,-0.73 0.66,-1.03 0.28,-0.29 0.62,-0.53 1,-0.7 0.38,-0.17 0.81,-0.26 1.26,-0.26 0.46,0 0.88,0.09 1.26,0.26 0.38,0.17 0.71,0.41 0.99,0.71 0.27,0.3 0.49,0.64 0.64,1.03 0.15,0.39 0.23,0.8 0.23,1.23 0,0.07 -0,0.13 -0.01,0.19 -0,0.06 -0.01,0.11 -0.02,0.13l-5.39 0c0.02,0.34 0.1,0.65 0.24,0.94 0.13,0.29 0.3,0.54 0.51,0.74 0.2,0.21 0.44,0.37 0.71,0.49 0.27,0.12 0.56,0.18 0.87,0.18 0.21,0 0.42,-0.03 0.62,-0.08 0.2,-0.06 0.39,-0.13 0.56,-0.23 0.17,-0.1 0.32,-0.22 0.45,-0.36 0.13,-0.14 0.24,-0.3 0.31,-0.47l0.71 0.19c-0.1,0.23 -0.23,0.45 -0.41,0.64 -0.18,0.19 -0.38,0.36 -0.62,0.5 -0.23,0.14 -0.49,0.25 -0.77,0.33 -0.28,0.08 -0.57,0.11 -0.87,0.11zm2.32 -3.61c-0.02,-0.34 -0.1,-0.65 -0.24,-0.93 -0.13,-0.28 -0.3,-0.52 -0.51,-0.72 -0.21,-0.2 -0.45,-0.36 -0.72,-0.47 -0.27,-0.11 -0.56,-0.17 -0.87,-0.17 -0.31,0 -0.6,0.06 -0.87,0.17 -0.27,0.11 -0.51,0.27 -0.72,0.47 -0.21,0.2 -0.37,0.44 -0.5,0.73 -0.13,0.28 -0.2,0.59 -0.22,0.92l4.65 0z"/>
  <path id="_7" class="fil2" d="M50.18 73c-0.49,0 -0.97,-0.08 -1.44,-0.24 -0.47,-0.16 -0.87,-0.4 -1.21,-0.7l0.37 -0.56c0.36,0.29 0.72,0.51 1.08,0.65 0.37,0.14 0.76,0.22 1.18,0.22 0.51,0 0.91,-0.1 1.22,-0.31 0.3,-0.21 0.45,-0.5 0.45,-0.88 0,-0.18 -0.04,-0.32 -0.12,-0.44 -0.08,-0.12 -0.2,-0.22 -0.36,-0.31 -0.16,-0.09 -0.35,-0.17 -0.59,-0.24 -0.24,-0.07 -0.51,-0.14 -0.83,-0.21 -0.36,-0.09 -0.68,-0.18 -0.94,-0.27 -0.27,-0.09 -0.49,-0.19 -0.66,-0.3 -0.17,-0.11 -0.3,-0.25 -0.39,-0.42 -0.09,-0.17 -0.13,-0.37 -0.13,-0.62 0,-0.32 0.06,-0.59 0.19,-0.84 0.13,-0.24 0.29,-0.44 0.51,-0.6 0.21,-0.16 0.46,-0.28 0.75,-0.36 0.29,-0.08 0.59,-0.12 0.91,-0.12 0.48,0 0.92,0.08 1.32,0.24 0.4,0.16 0.71,0.36 0.96,0.62l-0.4 0.48c-0.23,-0.24 -0.52,-0.42 -0.85,-0.54 -0.34,-0.12 -0.68,-0.18 -1.05,-0.18 -0.22,0 -0.42,0.02 -0.61,0.07 -0.19,0.05 -0.35,0.12 -0.49,0.21 -0.14,0.1 -0.25,0.22 -0.33,0.37 -0.08,0.15 -0.12,0.32 -0.12,0.53 0,0.17 0.03,0.31 0.08,0.41 0.06,0.1 0.15,0.2 0.28,0.27 0.13,0.08 0.29,0.15 0.49,0.21 0.2,0.06 0.44,0.12 0.72,0.19 0.4,0.1 0.76,0.19 1.06,0.29 0.31,0.1 0.56,0.21 0.77,0.34 0.21,0.13 0.36,0.29 0.47,0.47 0.1,0.18 0.16,0.41 0.16,0.68 0,0.58 -0.22,1.04 -0.67,1.38 -0.44,0.34 -1.04,0.51 -1.79,0.51z"/>
  <path id="_8" class="fil2" d="M59.2 65.9c-0.24,-0.27 -0.57,-0.5 -0.97,-0.67 -0.41,-0.17 -0.86,-0.25 -1.37,-0.25 -0.77,0 -1.32,0.14 -1.67,0.43 -0.35,0.29 -0.52,0.68 -0.52,1.17 0,0.26 0.05,0.47 0.14,0.64 0.09,0.16 0.24,0.31 0.44,0.43 0.2,0.12 0.45,0.23 0.75,0.32 0.3,0.09 0.66,0.18 1.07,0.27 0.46,0.1 0.87,0.2 1.23,0.32 0.36,0.12 0.67,0.27 0.93,0.45 0.26,0.18 0.46,0.4 0.59,0.67 0.14,0.26 0.21,0.59 0.21,0.97 0,0.4 -0.08,0.74 -0.23,1.03 -0.15,0.29 -0.37,0.53 -0.64,0.73 -0.27,0.19 -0.6,0.34 -0.98,0.43 -0.38,0.09 -0.79,0.14 -1.24,0.14 -1.35,0 -2.5,-0.42 -3.45,-1.25l0.41 -0.69c0.32,0.33 0.74,0.61 1.27,0.84 0.53,0.23 1.13,0.34 1.78,0.34 0.69,0 1.22,-0.12 1.61,-0.37 0.39,-0.25 0.58,-0.62 0.58,-1.12 0,-0.27 -0.05,-0.49 -0.16,-0.67 -0.11,-0.18 -0.27,-0.34 -0.49,-0.47 -0.22,-0.13 -0.49,-0.25 -0.82,-0.35 -0.33,-0.1 -0.7,-0.19 -1.13,-0.29 -0.45,-0.11 -0.85,-0.21 -1.19,-0.33 -0.34,-0.11 -0.62,-0.25 -0.85,-0.42 -0.23,-0.17 -0.4,-0.37 -0.52,-0.61 -0.12,-0.24 -0.18,-0.53 -0.18,-0.88 0,-0.39 0.07,-0.75 0.22,-1.06 0.15,-0.31 0.36,-0.57 0.63,-0.77 0.27,-0.21 0.59,-0.36 0.97,-0.47 0.37,-0.11 0.79,-0.16 1.24,-0.16 0.56,0 1.07,0.09 1.52,0.26 0.45,0.17 0.85,0.42 1.22,0.73l-0.4 0.68z"/>
  <path id="_9" class="fil2" d="M67.4 72.12c-0.33,0.26 -0.69,0.46 -1.08,0.61 -0.39,0.14 -0.81,0.22 -1.26,0.22 -0.6,0 -1.14,-0.12 -1.64,-0.38 -0.5,-0.25 -0.92,-0.58 -1.28,-0.98 -0.36,-0.4 -0.63,-0.87 -0.82,-1.39 -0.19,-0.52 -0.29,-1.06 -0.29,-1.61 0,-0.57 0.1,-1.12 0.31,-1.65 0.21,-0.52 0.49,-0.99 0.85,-1.39 0.36,-0.4 0.79,-0.72 1.28,-0.96 0.49,-0.24 1.03,-0.36 1.6,-0.36 0.6,0 1.14,0.13 1.64,0.38 0.5,0.25 0.92,0.59 1.27,1 0.35,0.41 0.62,0.88 0.82,1.4 0.19,0.52 0.29,1.05 0.29,1.59 0,0.59 -0.11,1.15 -0.32,1.68 -0.21,0.53 -0.51,1 -0.89,1.4l1.02 1.2 -0.83 0 -0.65 -0.76zm-2.35 0.06c0.36,0 0.7,-0.06 1.01,-0.18 0.31,-0.12 0.59,-0.28 0.85,-0.48l-1.08 -1.28 0.84 0 0.69 0.82c0.28,-0.34 0.5,-0.72 0.65,-1.16 0.15,-0.43 0.23,-0.87 0.23,-1.33 0,-0.47 -0.08,-0.92 -0.24,-1.35 -0.16,-0.43 -0.38,-0.81 -0.66,-1.14 -0.28,-0.33 -0.62,-0.6 -1,-0.8 -0.39,-0.2 -0.81,-0.3 -1.28,-0.3 -0.48,0 -0.92,0.1 -1.32,0.31 -0.4,0.21 -0.73,0.48 -1,0.82 -0.27,0.34 -0.49,0.72 -0.63,1.16 -0.15,0.43 -0.22,0.87 -0.22,1.31 0,0.47 0.08,0.92 0.23,1.35 0.15,0.43 0.37,0.81 0.65,1.15 0.28,0.34 0.62,0.6 1,0.8 0.39,0.2 0.82,0.3 1.29,0.3z"/>
  <polygon id="_10" class="fil2" points="70.72,72.88 70.72,64.29 71.55,64.29 71.55,72.13 76.52,72.13 76.52,72.88 "/>
 </g>
</svg>
