<?xml version="1.0" encoding="UTF-8"?>
<!DOCTYPE svg PUBLIC "-//W3C//DTD SVG 1.1//EN" "http://www.w3.org/Graphics/SVG/1.1/DTD/svg11.dtd">
<!-- Creator: CorelDRAW -->
<svg xmlns="http://www.w3.org/2000/svg" xml:space="preserve" width="8.5149mm" height="8.5149mm" version="1.1" style="shape-rendering:geometricPrecision; text-rendering:geometricPrecision; image-rendering:optimizeQuality; fill-rule:evenodd; clip-rule:evenodd"
viewBox="0 0 81.53 81.53"
 xmlns:xlink="http://www.w3.org/1999/xlink"
 xmlns:xodm="http://www.corel.com/coreldraw/odm/2003">
 <defs>
  <style type="text/css">
   <![CDATA[
    .fil0 {fill:none}
    .fil1 {fill:white}
    .fil2 {fill:white;fill-rule:nonzero}
   ]]>
  </style>
 </defs>
 <g id="Camada_x0020_1">
  <metadata id="CorelCorpID_0Corel-Layer"/>
  <polygon class="fil0" points="-0,81.53 81.53,81.53 81.53,0 -0,0 "/>
  <path class="fil1" d="M40.52 7.68c-1.42,0.72 -12.05,18.72 -13.09,20.43 -2.68,4.38 -2.38,3.03 2.39,10.66 0.64,1.02 2.88,4.56 3.44,4.92 1.23,0.78 5.14,-0.7 6.51,-1.15 4.23,-1.39 8.62,-2.53 12.91,-3.79 2.87,-0.84 3.89,-1.39 2.51,-4.45l-8.03 -17.03c-0.9,-1.99 -1.75,-3.77 -2.65,-5.71 -0.66,-1.43 -1.76,-5 -3.99,-3.87zm-4.71 33.48c0.94,0.3 15.98,-4.2 17.5,-4.86 0.21,-1.43 -4.38,-10.26 -5.33,-12.31 -1.02,-2.2 -1.92,-4.1 -2.94,-6.19 -0.49,-0.99 -0.9,-1.93 -1.41,-3.03 -0.47,-1.02 -0.8,-2.42 -1.8,-2.76 -1.04,1.26 -2.79,11.81 -3.3,14.42 -0.44,2.24 -3.34,13.47 -2.72,14.72z"/>
  <path class="fil2" d="M12.28 67.45l0 -12.76 5.41 0c0.59,0 1.13,0.12 1.63,0.37 0.5,0.25 0.93,0.57 1.28,0.97 0.36,0.4 0.64,0.86 0.84,1.37 0.2,0.51 0.31,1.02 0.31,1.54 0,0.54 -0.1,1.06 -0.29,1.57 -0.19,0.51 -0.46,0.96 -0.81,1.36 -0.35,0.4 -0.77,0.71 -1.26,0.95 -0.49,0.24 -1.03,0.36 -1.62,0.36l-3.02 0 0 4.28 -2.48 0zm2.48 -6.45l2.87 0c0.46,0 0.84,-0.19 1.14,-0.56 0.31,-0.37 0.46,-0.87 0.46,-1.51 0,-0.32 -0.05,-0.61 -0.14,-0.87 -0.1,-0.26 -0.22,-0.48 -0.38,-0.66 -0.16,-0.18 -0.34,-0.31 -0.55,-0.4 -0.21,-0.09 -0.42,-0.14 -0.64,-0.14l-2.77 0 0 4.13z"/>
  <path id="_1" class="fil2" d="M28.8 60.12c-0.73,0.01 -1.38,0.15 -1.96,0.42 -0.58,0.27 -0.99,0.67 -1.24,1.21l0 5.7 -2.41 0 0 -9.42 2.21 0 0 2.01c0.32,-0.65 0.75,-1.17 1.27,-1.56 0.52,-0.4 1.07,-0.59 1.64,-0.59 0.13,0 0.23,0 0.3,0.01 0.07,0.01 0.13,0.02 0.19,0.03l0 2.19z"/>
  <path id="_2" class="fil2" d="M30.15 67.45l0 -9.42 2.41 0 0 9.42 -2.41 0zm0 -10.73l0 -2.39 2.41 0 0 2.39 -2.41 0z"/>
  <path id="_3" class="fil2" d="M38.41 67.63c-0.38,0 -0.78,-0.03 -1.19,-0.09 -0.41,-0.06 -0.82,-0.14 -1.21,-0.25 -0.4,-0.11 -0.77,-0.24 -1.13,-0.4 -0.36,-0.16 -0.68,-0.33 -0.95,-0.52l0.97 -1.64c1.2,0.78 2.35,1.17 3.47,1.17 0.5,0 0.9,-0.09 1.19,-0.27 0.29,-0.18 0.43,-0.44 0.43,-0.77 0,-0.34 -0.17,-0.58 -0.51,-0.75 -0.34,-0.16 -0.91,-0.34 -1.72,-0.53 -0.61,-0.14 -1.13,-0.29 -1.56,-0.45 -0.43,-0.16 -0.78,-0.34 -1.04,-0.54 -0.26,-0.2 -0.45,-0.44 -0.57,-0.7 -0.12,-0.26 -0.18,-0.58 -0.18,-0.93 0,-0.48 0.1,-0.91 0.29,-1.29 0.19,-0.38 0.46,-0.71 0.8,-0.98 0.34,-0.27 0.74,-0.48 1.2,-0.62 0.46,-0.14 0.96,-0.22 1.5,-0.22 0.67,0 1.34,0.11 2,0.32 0.67,0.21 1.28,0.49 1.86,0.85l-0.99 1.49c-0.53,-0.34 -1.02,-0.58 -1.49,-0.73 -0.47,-0.15 -0.93,-0.23 -1.4,-0.23 -0.43,0 -0.79,0.08 -1.09,0.25 -0.29,0.17 -0.44,0.44 -0.44,0.81 0,0.32 0.14,0.56 0.42,0.7 0.28,0.14 0.78,0.31 1.5,0.49 0.67,0.17 1.24,0.34 1.72,0.5 0.47,0.17 0.86,0.36 1.17,0.57 0.31,0.22 0.53,0.46 0.66,0.75 0.14,0.28 0.21,0.62 0.21,1.01 0,0.46 -0.09,0.87 -0.28,1.24 -0.19,0.37 -0.45,0.69 -0.78,0.94 -0.34,0.26 -0.75,0.45 -1.23,0.59 -0.48,0.14 -1.02,0.21 -1.61,0.21z"/>
  <path id="_4" class="fil2" d="M58.45 67.45l-2.41 0 0 -5.28c0,-0.76 -0.13,-1.31 -0.4,-1.65 -0.26,-0.35 -0.62,-0.52 -1.08,-0.52 -0.47,0 -0.91,0.18 -1.33,0.55 -0.42,0.37 -0.72,0.84 -0.9,1.43l0 5.48 -2.41 0 0 -5.28c0,-0.76 -0.13,-1.31 -0.39,-1.65 -0.26,-0.35 -0.61,-0.52 -1.07,-0.52 -0.47,0 -0.91,0.18 -1.34,0.54 -0.43,0.36 -0.73,0.83 -0.91,1.42l0 5.5 -2.41 0 0 -9.42 2.17 0 0 1.74c0.35,-0.61 0.82,-1.08 1.43,-1.41 0.61,-0.33 1.3,-0.49 2.07,-0.49 0.79,0 1.4,0.19 1.82,0.58 0.43,0.38 0.7,0.86 0.84,1.42 0.38,-0.65 0.87,-1.14 1.46,-1.48 0.59,-0.34 1.26,-0.51 2.01,-0.51 0.57,0 1.05,0.11 1.42,0.32 0.37,0.22 0.66,0.5 0.86,0.84 0.2,0.35 0.34,0.74 0.42,1.19 0.08,0.44 0.12,0.89 0.12,1.35l0 5.88z"/>
  <path id="_5" class="fil2" d="M63.1 67.63c-0.45,0 -0.88,-0.08 -1.28,-0.23 -0.4,-0.15 -0.74,-0.36 -1.02,-0.63 -0.29,-0.27 -0.51,-0.58 -0.67,-0.94 -0.16,-0.36 -0.24,-0.75 -0.24,-1.19 0,-0.44 0.1,-0.85 0.3,-1.23 0.2,-0.38 0.47,-0.7 0.83,-0.96 0.35,-0.26 0.78,-0.47 1.27,-0.62 0.49,-0.15 1.03,-0.22 1.62,-0.22 0.42,0 0.83,0.04 1.23,0.11 0.4,0.07 0.76,0.17 1.07,0.31l0 -0.54c0,-0.62 -0.18,-1.1 -0.53,-1.44 -0.35,-0.34 -0.88,-0.5 -1.57,-0.5 -0.5,0 -0.99,0.09 -1.47,0.27 -0.48,0.18 -0.97,0.44 -1.47,0.79l-0.74 -1.53c1.21,-0.8 2.52,-1.2 3.92,-1.2 1.35,0 2.4,0.33 3.15,1 0.75,0.66 1.12,1.63 1.12,2.88l0 2.93c0,0.25 0.05,0.43 0.14,0.54 0.1,0.11 0.26,0.17 0.5,0.18l0 2.05c-0.23,0.05 -0.44,0.08 -0.64,0.1 -0.2,0.02 -0.37,0.03 -0.51,0.03 -0.46,-0.01 -0.8,-0.12 -1.04,-0.31 -0.24,-0.2 -0.39,-0.46 -0.45,-0.8l-0.05 -0.52c-0.42,0.55 -0.93,0.97 -1.53,1.26 -0.6,0.29 -1.24,0.43 -1.92,0.43zm0.68 -1.76c0.41,0 0.79,-0.07 1.16,-0.22 0.37,-0.14 0.65,-0.34 0.85,-0.57 0.26,-0.2 0.39,-0.43 0.39,-0.68l0 -1.08c-0.29,-0.11 -0.6,-0.2 -0.93,-0.26 -0.34,-0.07 -0.66,-0.1 -0.97,-0.1 -0.62,0 -1.13,0.14 -1.53,0.42 -0.4,0.28 -0.59,0.64 -0.59,1.07 0,0.41 0.16,0.75 0.47,1.01 0.31,0.27 0.69,0.41 1.15,0.41z"/>
 </g>
</svg>
