<?xml version="1.0" encoding="UTF-8"?>
<!DOCTYPE svg PUBLIC "-//W3C//DTD SVG 1.1//EN" "http://www.w3.org/Graphics/SVG/1.1/DTD/svg11.dtd">
<!-- Creator: CorelDRAW -->
<svg xmlns="http://www.w3.org/2000/svg" xml:space="preserve" width="8.5146mm" height="8.5146mm" version="1.1" style="shape-rendering:geometricPrecision; text-rendering:geometricPrecision; image-rendering:optimizeQuality; fill-rule:evenodd; clip-rule:evenodd"
viewBox="0 0 9.59 9.59"
 xmlns:xlink="http://www.w3.org/1999/xlink"
 xmlns:xodm="http://www.corel.com/coreldraw/odm/2003">
 <defs>
  <style type="text/css">
   <![CDATA[
    .fil0 {fill:none}
    .fil1 {fill:white;fill-rule:nonzero}
   ]]>
  </style>
 </defs>
 <g id="Camada_x0020_1">
  <metadata id="CorelCorpID_0Corel-Layer"/>
  <g id="_2650375164864">
   <rect class="fil0" y="0" width="9.59" height="9.59"/>
   <path class="fil1" d="M4.89 0.98c-0.31,0 -0.53,0.03 -0.79,0.07 -0.77,0.13 -0.91,0.42 -0.91,0.94l0 0.8 1.81 0 0 0.4 -1.88 0 -0.87 0c-0.53,0 -0.99,0.25 -1.14,0.85 -0.17,0.69 -0.17,1.12 0,1.83 0.13,0.53 0.42,0.94 0.95,0.94l0.73 0 0 -1.03c0,-0.6 0.54,-1.18 1.16,-1.18l1.45 0c0.51,0 1,-0.37 1,-0.88l0 -1.72c0,-0.49 -0.35,-0.86 -0.85,-0.94 0.01,-0 -0.35,-0.07 -0.66,-0.07zm-1 0.8c0.16,0 0.3,0.14 0.3,0.3 0,0.17 -0.14,0.3 -0.3,0.3 -0.17,0 -0.3,-0.13 -0.3,-0.3 0,-0.17 0.13,-0.3 0.3,-0.3z"/>
   <path class="fil1" d="M4.7 8.61c0.31,-0 0.53,-0.03 0.79,-0.07 0.77,-0.13 0.91,-0.42 0.91,-0.94l0 -0.8 -1.81 0 0 -0.4 1.88 0 0.87 0c0.53,0 0.99,-0.25 1.14,-0.85 0.17,-0.69 0.17,-1.12 0,-1.83 -0.13,-0.53 -0.42,-0.94 -0.95,-0.94l-0.73 0 0 1.03c0,0.6 -0.54,1.18 -1.16,1.18l-1.45 0c-0.51,0 -1,0.37 -1,0.88l0 1.72c0,0.49 0.35,0.86 0.85,0.94 -0.01,0 0.35,0.07 0.66,0.07zm1 -0.8c-0.16,0 -0.3,-0.14 -0.3,-0.3 0,-0.17 0.14,-0.3 0.3,-0.3 0.17,0 0.3,0.13 0.3,0.3 0,0.17 -0.13,0.3 -0.3,0.3z"/>
  </g>
 </g>
</svg>
