<?xml version="1.0" encoding="UTF-8"?>
<!DOCTYPE svg PUBLIC "-//W3C//DTD SVG 1.1//EN" "http://www.w3.org/Graphics/SVG/1.1/DTD/svg11.dtd">
<!-- Creator: CorelDRAW -->
<svg xmlns="http://www.w3.org/2000/svg" xml:space="preserve" width="8.5146mm" height="8.5146mm" version="1.1" style="shape-rendering:geometricPrecision; text-rendering:geometricPrecision; image-rendering:optimizeQuality; fill-rule:evenodd; clip-rule:evenodd"
viewBox="0 0 8.93 8.93"
 xmlns:xlink="http://www.w3.org/1999/xlink"
 xmlns:xodm="http://www.corel.com/coreldraw/odm/2003">
 <defs>
  <style type="text/css">
   <![CDATA[
    .fil0 {fill:none}
    .fil4 {fill:#424242;fill-rule:nonzero}
    .fil3 {fill:black;fill-rule:nonzero}
    .fil1 {fill:#CCCCCC;fill-rule:nonzero}
    .fil2 {fill:white;fill-rule:nonzero}
   ]]>
  </style>
 </defs>
 <g id="Camada_x0020_1">
  <metadata id="CorelCorpID_0Corel-Layer"/>
  <g id="_2650379359584">
   <rect class="fil0" y="0" width="8.93" height="8.93"/>
   <polygon class="fil1" points="7.6,0.91 7.03,7.31 4.46,8.02 1.9,7.31 1.33,0.91 "/>
   <polygon class="fil2" points="6.54,6.9 7.03,1.42 4.47,1.42 4.47,7.47 "/>
   <polygon class="fil3" points="4.47,3.82 4.56,4.18 4.47,4.55 2.71,4.55 2.64,3.82 "/>
   <polygon class="fil3" points="4.47,2.25 4.56,2.62 4.47,2.98 2.57,2.98 2.5,2.25 "/>
   <polygon class="fil3" points="4.56,6.21 4.47,6.66 2.86,6.21 2.75,5.01 3.54,5.01 3.59,5.61 4.47,5.84 "/>
   <path class="fil4" d="M4.47 2.25l0 0.74 1.1 0 -0.07 0.83 -1.03 0c-0,-0 -0,0.74 -0,0.74l0.97 0 -0.09 1.06 -0.87 0.24 0 0.82 1.61 -0.45 0.01 -0.13 0.18 -2.06 0.02 -0.21 0.14 -1.56 -1.96 0z"/>
  </g>
 </g>
</svg>
