<?xml version="1.0" encoding="UTF-8"?>
<!DOCTYPE svg PUBLIC "-//W3C//DTD SVG 1.1//EN" "http://www.w3.org/Graphics/SVG/1.1/DTD/svg11.dtd">
<!-- Creator: CorelDRAW -->
<svg xmlns="http://www.w3.org/2000/svg" xml:space="preserve" width="8.5146mm" height="8.5146mm" version="1.1" style="shape-rendering:geometricPrecision; text-rendering:geometricPrecision; image-rendering:optimizeQuality; fill-rule:evenodd; clip-rule:evenodd"
viewBox="0 0 126.39 126.39"
 xmlns:xlink="http://www.w3.org/1999/xlink"
 xmlns:xodm="http://www.corel.com/coreldraw/odm/2003">
 <defs>
  <style type="text/css">
   <![CDATA[
    .fil1 {fill:none}
    .fil0 {fill:white;fill-rule:nonzero}
   ]]>
  </style>
 </defs>
 <g id="Camada_x0020_1">
  <metadata id="CorelCorpID_0Corel-Layer"/>
  <path id="Flask.svg" class="fil0" d="M47.55 68.67c-2.67,-2.1 -5.51,-4.11 -7.45,-6.94 -4.09,-4.99 -7.24,-10.78 -9.39,-16.85 -1.3,-3.95 -1.75,-8.19 -3.43,-11.99 -1.75,-2.76 0.3,-5.77 3.32,-6.65 1.34,-0.26 3.71,-1.53 0.86,-0.62 -2.56,1.88 -2.8,-1.71 -0.18,-1.93 1.79,-0.24 2.45,-1.7 1.84,-3.03 -1.92,-1.25 4.66,-2.63 1.35,-4.51 -3.45,-3.72 4.83,-4.44 2.78,-0.21 -0.49,3.25 5.78,-0.6 4.33,3.16 1.48,1.8 5.54,0.41 5.44,2.94 2.16,0.15 2.9,1.96 4.92,2.1 2.1,0.94 5.9,1.69 6.61,4.06 -2.08,1.64 -6.9,-3.4 -7.13,1.16 0.63,6.74 0.47,13.67 2.93,20.09 1.17,3.88 3.99,6.94 6.54,9.96 2.44,2.96 5.75,5.05 9.12,6.81 2.96,1.39 6.14,2.32 9.37,2.9 1.3,-1 3.62,-4.71 5.65,-3.15 0.1,1.76 -4.05,3.68 -0.19,3.49 2.26,-0.68 3.83,1.75 5.7,-0.45 1.71,2.04 7.13,-1.3 5.91,2.85 -1.65,1.06 -4.06,0.42 -5.72,1.89 -2.73,-1.36 -4.9,1.22 -7.91,0.9 -3.35,0.6 -6.76,0.84 -10.16,0.84 -5.58,-0.44 -11.27,-0.62 -16.57,-2.57 -2.99,-0.87 -5.91,-2.57 -8.53,-4.27l0 0zm4.71 2.04c2.92,1.26 5.77,2.59 8.97,2.99 5.07,0.71 10.32,1.79 15.41,0.8 -2.31,-1.04 -4.69,0.4 -6.98,-0.74 -2.76,0.59 -5.71,-0.15 -8.51,-0.52 -3.18,-1.42 -6.62,-2.39 -9.6,-4.24 -3.72,-1.36 1.93,1.75 2.93,2 2.33,1.32 -2.56,-0.68 -3.25,-1.23 -1.95,-1.1 -2.2,-0.86 -0.2,0.25 0.4,0.23 0.81,0.49 1.23,0.69l0 0zm-5.55 -3.93c2.83,1.05 -0.01,-1.99 -1.3,-1.82 -0.57,-0.99 -2.19,-1.63 -1.05,-2.16 -2.05,0.71 -2.16,-2.71 -3.12,-2.22 -2.17,-0.69 -0.84,-3.12 -3.43,-4.61 -0.23,-1.57 -2.57,-2.94 -3.31,-5.31 -0.33,-1.22 -2.64,-4.7 -1.22,-1.46 1.21,3.13 3.33,5.8 5.1,8.48 1.37,2.55 3,5.2 5.5,6.79 0.84,0.82 1.66,2.06 2.85,2.31l0 0zm-8.15 -8.94c0.1,-0.43 0.52,0.92 0,0zm11.53 10.2c0.63,-0.28 -0.9,-0.35 0,0zm1.54 0.56c-0.16,-0.78 -0.7,0.43 0,0zm1.92 0.8c0.91,-0.87 -1.41,-0.55 0,0zm3.29 1.83c0.56,-0.82 -1.78,-0.31 0,0zm-6.32 -4.4c1.42,-0.92 -1.83,-0.01 0,0zm1.44 0.72c-0.04,-0.49 -0.52,0.21 0,0zm7.2 4.49c1.16,0.73 6.76,1.6 3.25,0.3 -0.59,0.13 -6.51,-1.68 -3.25,-0.3zm-11.44 -8.9c-0.11,-0.49 -1.8,-0.54 0,0zm3.35 1.95c0.88,-0.6 -1.81,-0.47 0,0zm2.82 1.73c1.25,-0.47 -2.04,-0.47 0,0zm-7.54 -5.17c1.36,1.04 5.48,0.13 2.08,-0.62 -1.54,-0.83 -5.03,-1.39 -2.66,0.5l0.58 0.13zm9.45 5.77c0.57,-0.96 -2.38,-0.56 0,0zm-2.87 -2.29c3.32,0.94 -2.79,-2.1 -0.82,-0.35l0.44 0.2 0.38 0.15 0 0zm5.76 3.33c3.15,0.03 -2.84,-0.43 0,0zm-13.55 -8.63c-0.12,-0.59 -0.77,0.05 0,0zm18.87 11.62c0.09,-1.06 -1.02,0.79 0,0zm-13.5 -8.33c-0.19,-0.55 -0.98,-0.03 0,0zm-5.07 -3.65c1.8,-0.11 -2.48,-0.79 0,0zm-6.01 -3.88c-0.23,-0.87 -1.97,-1.56 0,0zm15.77 10.01c-0.33,-0.38 -0.16,0.08 0,0zm9.82 6.03c-0.03,-0.57 -0.54,0.22 0,0zm-10.69 -6.92c0.18,-0.74 -1.54,-0.23 0,0zm-7.31 -4.64c1.34,-0.15 -2.16,-0.91 0,0zm12.37 7.69c2.09,-0.83 -2.04,-0.4 0,0zm-6.43 -4.37c2.41,0.31 -2.87,-1.64 -0.53,-0.18l0.53 0.18zm8.39 5.16c2.26,-1.35 1.51,3.16 3.83,0.38 2.28,-1.66 -1.97,2.06 0.84,0.3 2.04,-1.36 5.04,0.64 6.93,1.3 1.36,-0.07 2.69,1.18 4.09,0.42 2.69,-0.72 -5.27,-1.08 -3.18,-2.36 -2.46,0.72 -4.29,-0.86 -5.5,-2.43 -2.77,-0.64 -5.96,-2.05 -7.34,-4.5 -0.56,-0.92 0.81,0.13 -0.49,-1.37 -1.66,-1.48 -2.5,-3.16 -3.61,-4.97 -1.34,-0.71 -1.49,-2.81 -1.63,-0.07 0.01,-1.73 -1.61,-2.89 -2.01,-2.41 -0.01,-1.66 1.74,-0.83 0.52,-2.06 -0.26,-1.73 -1.13,-3.52 -1.39,-5.47 -0.4,-0.94 -0.06,-2.95 -1.38,-0.83 -0.48,2.25 -0.16,-2.76 0.59,-1.11 0.98,-1.68 -0.35,-1.49 -0.41,-1.25 0.64,-1.43 0.4,-3.44 -0.17,-2.67 0.34,-1.51 0.54,-5.55 -0.51,-4.83 0.64,-1.57 1.21,-7.21 -1.56,-5.06 -1.12,0.02 -3.06,0.4 -3.98,0.86 2.87,1.58 -0.29,0.57 -1.46,0.32 -0.15,1.47 -1.31,0.83 -2.76,0.84 2.31,0.28 -1.13,2.36 -2.45,1.56 -1.73,0.83 1.49,2.88 0.03,3.52 0.18,0.96 -2.64,-0.35 -2.42,1.86 -1.67,-0.71 -0.23,2.62 0.6,1.5 2.84,0.77 2,2.53 2.07,4.19 -0.47,0.97 -2.29,-2.28 -0.4,-2.13 -1.49,-2.41 -1.64,-0.87 -2.87,0.24 -0.29,0.08 3.14,1.59 0.99,2.35 1.9,0.3 1.95,1.95 2.34,3 1.14,1.18 0.91,-1.31 2.27,0.11 -0.86,-1.27 -4.57,-3.58 -1.59,-2.84 -0.02,-1.28 -0.54,-2.31 0.38,-2.29 0.91,-1.64 -0.95,4.05 1.09,1.96 0.57,-0.24 0.71,-1.64 1.72,0.13 1.48,1.45 0.54,2.5 -1.55,1.17 0.37,1.27 2.79,1.71 2.33,3.69 0.48,1.74 1.15,1.1 1.74,0.99 0.46,1.69 0.72,0.45 0.74,-0.36 2.1,0.45 1.61,1.69 2.27,2.56 1.45,0.66 -2.07,-4.44 0.42,-1.53 2.62,2.36 0.98,3.35 -1.37,2.97 1.49,-0.12 1.97,2.01 3.83,1.93 1.69,0.81 2.85,3.91 -0.08,2.62 -1.02,-0.91 -4.61,-2.04 -1.67,-0.3 2.71,1.25 4.86,2 7.47,3.58 1.87,1.34 2.68,2.86 3.38,3.16 -1.57,0.75 -4.73,-0.6 -2.38,-1.02 -1.47,-0.26 -3.11,-1.01 -1.71,0.82 1.19,1 4.23,0.9 4.78,1 -0.46,1.02 -1.25,1.1 0.02,1.17 -1.42,0.77 0.45,0.89 0.59,1.32l0 0zm-2.9 -8.19c-0.86,-0.9 -1.08,-2.59 -0.15,-1.12 0.47,0.19 1.53,2.76 0.15,1.12zm9.45 6c0.53,-0.04 0.01,0.41 0,0zm-10.81 -8.21c-0.04,-1.37 0.31,1.05 0,0zm-0.94 -1.27c-1.09,-2.09 1.37,0.6 0,0zm-11.38 -7.85c0.64,-0.17 0.31,1.09 0,0zm9.06 4.91c0.39,-1.47 0.46,1.24 0,0zm-6.4 -4.45c-0.45,-0.81 0.95,0.76 0,0zm5.49 1.76c-1.03,-2.3 0.73,-1.26 0.23,0.38l-0.23 -0.38zm-9.46 -6.31c-0.46,-0.76 -1.22,-2.97 -0.98,-3.65 0.22,1.1 2.34,4.74 1.04,1.51 -1.44,-2.71 1.72,0.88 2.05,1.56 0.15,0.67 -0.89,-0.18 -0.18,1.39 -1.29,-1.8 -0.76,1 -1.93,-0.81l0 0zm-2.92 -2.02c0.12,-1.76 0.67,1.2 0,0zm1.31 0.45c0.63,-1.33 1.06,1.85 0,0zm-3.16 -2.45c-1.09,-1.08 -1.88,-2.08 0.05,-0.67 0.74,0.03 -1.65,-2.27 0.18,-0.73 1.93,0.35 0.95,3.16 -0.23,1.4zm1.66 -0.04c0.63,-0.62 0.33,0.62 0,0zm1.02 0.33c-0.96,-1.8 1.17,0.76 0,0zm-2.03 -1.94c-3.16,-2.82 3.98,1.47 0.52,0.52l-0.52 -0.52zm9.07 5.27c-1.37,-0.82 -0.37,-5.78 0.1,-2.39 1.33,-0.43 -0.08,1.75 0.92,1.73 -0.15,1.37 -0.6,1.87 -1.02,0.66zm3.36 1.98c0.13,-1.5 0.28,1.02 0,0zm-0.59 -0.58c0.15,-0.64 0.02,0.76 0,0zm-11.22 -7.6c-2.04,-2.8 5.91,2.84 1.3,0.71 -0.49,-0.13 -1.06,-0.18 -1.3,-0.71zm6.47 3.42c-0.2,-2.36 0.43,0.39 0,0zm4.9 3.15c0.38,-1.35 0.03,0.89 0,0zm-11.05 -7.64c1.21,-0.26 5.01,2.12 1.52,0.68 -0.39,-0.43 -1.22,-0.24 -1.52,-0.68zm10.38 5.17c0.13,-2.42 0.73,-1.44 0.01,0.35l-0.01 -0.35zm-9.48 -6.02c0.49,-0.73 -1.31,-3.26 0.26,-0.91 0.68,0.54 1.96,0.9 0.83,1.13 1.79,1.57 -0.43,0.43 -1.08,-0.21zm8.97 5.26c0.34,-2.75 0.3,1.61 0,0zm-10 -7.8c0.38,-0.16 0.2,0.5 0,0zm2.34 1.39c0.6,-1.27 1.11,1.4 0,0zm6.6 3.67c0,-0.49 0.13,0.71 0,0zm-0.38 -0.84c-0.91,-2.26 0.85,1.2 0,0zm-0.56 -1.48c-0.16,-0.93 0.52,1.17 0,0zm0.91 -1.49c-0.63,-1.11 0.79,-4.88 0.95,-2.54 -0.66,1.82 -0.19,2.84 0.27,0.4 0.86,-1.93 -0.18,3.79 -1.22,2.14zm0.94 -5.61c0.28,-0.33 0.06,0.41 0,0zm-1.57 30.95c-0.37,-0.33 0.04,0.21 0,0zm3.23 1.64c1.8,0.47 1.79,-0.28 0.16,-0.5 -0.88,-0.81 -3.64,-1.68 -1.17,-0.1 0.17,0.41 0.69,0.4 1,0.6l0 0zm-6.39 -4.25c0.99,0.74 3.74,2.09 1.41,0.28 0.78,-0.91 -1.5,-1.39 -0.74,-2 -1.93,-1.18 -1.52,-1.07 -0.17,-1.03 -2.31,-1.03 0.33,-0.96 0.21,-1.49 -0.89,-0.18 -4.43,-1.57 -2.35,0.11 -2.12,-1.08 -0.5,0.4 -1.15,0.24 -2.17,-0.59 1.93,1.65 -0.34,1.09 1.24,0.98 3.34,2.52 0.52,1.04 -0.36,0.54 2.02,1.35 2.61,1.75l0 0zm3.38 1.95c4.11,1.32 -2.02,-1.63 0,0zm17.33 10.49c0.05,-0.82 -0.57,0.7 0,0zm1.78 0.75c0.95,-0.92 0.04,1.47 1.57,-0.23 0.02,-1.21 -0.04,-1.93 -1.76,-0.45 -0.47,0.26 -0.69,1.38 0.19,0.68l0 0zm-28.26 -17.75c-0.3,-1.15 -2.05,-1.14 0,0zm1.9 1.25c-0.71,-1.17 -2.52,-1.06 0,0zm10.82 6.52c1.06,0.94 4.85,0.69 1.28,0.11 -0.52,-0.78 -3.35,-0.59 -1.28,-0.11zm14.87 9.18c1.62,-1.36 -1.57,0.61 0,0zm3.38 2.33c0.01,-0.43 -0.7,0.19 0,0zm0.01 -0.61c1.8,-1.91 -1.75,0.11 0,0zm-35.65 -22.58c-1.53,-2.19 -0.95,-3.17 -2.43,-4.96 -0.28,-1.37 -2.54,-4.47 -1.17,-1.18 1.25,1.92 1.63,4.9 3.6,6.14zm35.09 21.97c3.31,-2.14 -1.36,-0.93 0,0zm2.53 0.99c1.66,-1.43 -1.05,-0.3 0,0zm-33.5 -21.47c0.48,-0.71 -1.22,-0.09 0,0zm32.98 20.79c1.61,-1.03 -0.37,-0.88 -0.29,0.1l0.29 -0.1zm-21.79 -13.73c-0.06,-0.7 -0.85,0.06 0,0zm1.35 0.77c-0.43,-0.87 -0.66,0.13 0,0zm23.02 13.66c2.06,-1.49 -1.25,-0.28 -0.43,0.28l0.43 -0.28zm-0.79 -0.38c1.68,-1.41 -1.76,0.62 0,0zm4.03 2.68c1.13,-0.75 -1.37,-0.24 0,0zm-37.75 -24.3c1.51,0.34 6.03,3.71 3.36,0.23 -1.37,-0.4 -0.55,-3.74 -1.94,-3.15 0.93,1.56 0.77,2.23 -1.2,1.24 -2.46,-1.2 -1.39,0.59 -0.9,1.09 -0.66,0.16 0.88,0.57 0.68,0.59zm-6.87 -5.43c0.27,-1.12 -2.49,-6.14 -1.3,-2.52 0.43,0.76 0.38,2.2 1.3,2.52zm12.61 7.78c-0.77,-0.65 -0.04,-0.09 0,0zm1.91 0.45c0,-1.18 -2.11,-0.49 0,0zm16.57 10.44c-0.32,-0.81 -1.25,-0.01 0,0zm0.79 0.59c-0.11,-0.45 -0.45,0.09 0,0zm6.57 4.13c0.63,-0.47 -0.79,-0.06 0,0zm-35.03 -22.51c1.81,-0.7 -1.94,-0.5 0,0zm26.21 16.51c-0.03,-1.17 -1.15,0.29 0,0zm-26.92 -18.17c1.16,-0.39 -1.08,-0.26 0,0zm3.37 1.63c-0.02,-0.38 -0.35,0.14 0,0zm41.1 25.2c1.49,-0.3 4.9,0.76 5.44,-0.4 -1.81,-0.04 -6.27,-1.28 -6.48,0.29l0.4 0.06 0.64 0.04zm-40.03 -24.93c0.03,-1.18 -0.92,-0.04 0,0zm-8.85 -6.14c-0.4,-2.25 -1.53,-0.34 0,0zm2.11 0.53c0.03,-0.72 -1.93,-0.65 0,0zm1.2 0.59c-0.35,-0.28 -0.27,0.36 0,0zm7.6 4.87c0.36,-0.33 -0.85,-0.24 0,0zm-8.4 -6.21c-0.21,-1.71 -2.44,-0.25 0,0zm-4.33 -2.81c-0.06,-0.79 -0.42,0.3 0,0zm0.64 -0.49c-0.11,-0.93 -0.56,0.12 0,0zm3.56 2.12c1.51,-0.59 -2.74,-1.22 -0.31,-0.11l0.31 0.11zm47.63 29.42c0.96,-0.88 -1.22,-0.27 0,0zm5.75 2.99c0.38,-1.14 -0.97,0.15 0,0zm-53.03 -34.27c0.16,-1.1 -1.19,0.22 0,0zm-5.06 -3.39c-0.27,-1.56 -0.23,-4.3 2.37,-3.37 -3.47,0.69 2.41,4.32 1.66,1.45 1.46,0.07 2.85,-0.86 2.09,0.56 2.88,-0.31 4.87,-2.81 7.65,-2.46 2.17,-0.29 4.53,-0.5 6.86,-1.37 1.91,-0.14 3.76,-2.21 2.72,-3.43 -2.62,-0.22 -5.36,0.11 -8.24,0.68 -3.2,0.67 -6.11,1.93 -9.35,2.48 -3.15,0.42 0.63,1.17 -0.27,1.33 -1.64,0.57 1.96,0.96 -0.22,1.56 -1.34,-0.26 -2.74,-0.72 -2.17,-2.13 -3.02,0.39 -5.67,1.64 -3.28,4.71l0.17 0zm7.27 -3.71c0.71,-2.61 3.79,2.14 1.16,0.35 -0.31,-0.24 -0.83,-0.43 -1.16,-0.35zm0.14 -1.27c1.02,-0.76 0.54,0.43 0,0zm1.3 0.03c0.1,-1.2 2.97,0.64 0.47,0.43l-0.47 -0.43zm1.77 -0.72c0.65,-0.76 0.19,0.68 0,0zm0.45 -0.3c1.08,-1.3 6.11,-0.83 2.43,-0.13 -0.98,-0.74 -1.74,0.44 -2.43,0.13zm6.57 -1.01c-0.16,-3.54 3.26,1.25 0,0zm1.86 -0.01c0.68,-1.78 2.65,-0.72 0.32,-0.36 0.05,0.19 -0.07,0.92 -0.32,0.36zm-15.03 9.46c2.04,-1.25 -2.16,-1.08 0,0zm1.51 0.42c0.71,-0.76 -1.55,-0.31 0,0zm-4.44 -3.14c1.17,-0.9 -1.37,-0.34 0,0zm60.09 37.59c0.03,-1.04 -0.89,0.47 0,0zm-6.11 -4.17c0.18,-1.2 -0.78,0.1 0,0zm7.79 4.57c1.63,0.01 4.93,-0.5 1.39,-0.5 -0.55,0.08 -3.23,0.07 -1.39,0.5zm-56.01 -35.58c1.32,-0.09 2.06,-1.45 -0.26,-1.37 -3.58,-0.37 3.16,1.23 -0.46,0.77 -0.49,0.32 0.69,0.69 0.72,0.61zm1.16 0.59c-0.14,-0.84 -0.41,0.45 0,0zm1.37 -3.67c0.57,-0.71 -0.79,-0.19 0,0zm-4.38 -7.31c2.35,-0.8 5.56,-1.7 6.67,0.39 -1.13,-1.36 -0.45,-2.7 0.61,-0.71 1.51,2.01 2.26,-0.91 1.28,-1.59 1.11,1.39 2.39,2.04 0.75,0.09 1.78,-2.14 -3.57,0.28 -4.78,0.26 -0.58,0.26 -6.04,1.39 -4.52,1.56l0 0zm1.38 -2.63c1.34,-1.01 4.63,0.61 2.52,-1 -0.21,-0.19 -4.63,1.22 -2.52,1zm4.89 0.2c1.57,0.04 -0.68,-2.1 1.19,-1.13 -0.31,-1 -2.17,-1.19 -3.09,-1.59 -0.52,0.91 1.05,2.73 1.9,2.72l0 0zm-4.03 -4.44c0.54,-0.73 -0.95,0.38 0,0zm1.99 0.48c2.53,-0.33 -0.64,-1.08 -0.51,-0.03l0.51 0.03zm-3.72 -2.91c-1.78,-2.33 3.35,0.39 1.54,-2.04 -1.52,-1.21 -2.98,1.36 -1.54,2.04zm22.82 12.29c0.81,-1.44 -3.37,-1.95 -0.55,-0.51 0.26,0.09 0.2,0.61 0.55,0.51z"/>
 </g>
 <g id="Camada_x0020_1_0">
  <metadata id="CorelCorpID_1Corel-Layer"/>
  <rect class="fil1" width="126.39" height="126.39"/>
  <polygon class="fil0" points="20.4,111.94 20.4,87.25 36.99,87.25 36.99,91.46 25.2,91.46 25.2,97.82 35.01,97.82 35.01,101.71 25.2,101.71 25.2,111.94 "/>
  <path id="_1" class="fil0" d="M39.74 86.55l4.66 0 0 19.34c0,1.41 0.64,2.12 1.91,2.12 0.26,0 0.55,-0.05 0.89,-0.14 0.34,-0.09 0.65,-0.2 0.96,-0.31l0.63 3.72c-0.63,0.3 -1.36,0.53 -2.19,0.69 -0.84,0.16 -1.59,0.24 -2.26,0.24 -1.46,0 -2.59,-0.39 -3.39,-1.16 -0.8,-0.78 -1.2,-1.88 -1.2,-3.32l0 -21.18z"/>
  <path id="_2" class="fil0" d="M55.81 112.29c-0.88,0 -1.7,-0.14 -2.47,-0.43 -0.76,-0.29 -1.43,-0.69 -1.98,-1.22 -0.56,-0.52 -0.99,-1.13 -1.3,-1.83 -0.31,-0.69 -0.47,-1.46 -0.47,-2.29 0,-0.86 0.19,-1.65 0.57,-2.38 0.38,-0.73 0.92,-1.35 1.6,-1.86 0.68,-0.51 1.5,-0.91 2.45,-1.2 0.95,-0.29 1.99,-0.43 3.13,-0.43 0.81,0 1.61,0.07 2.38,0.21 0.78,0.14 1.47,0.34 2.07,0.59l0 -1.04c0,-1.21 -0.34,-2.13 -1.03,-2.78 -0.68,-0.65 -1.7,-0.97 -3.04,-0.97 -0.97,0 -1.92,0.17 -2.85,0.52 -0.93,0.35 -1.88,0.86 -2.85,1.53l-1.43 -2.96c2.34,-1.55 4.87,-2.33 7.58,-2.33 2.62,0 4.66,0.64 6.1,1.93 1.45,1.29 2.17,3.15 2.17,5.58l0 5.67c0,0.49 0.09,0.83 0.28,1.04 0.19,0.21 0.51,0.33 0.97,0.35l0 3.96c-0.44,0.09 -0.85,0.16 -1.24,0.19 -0.38,0.03 -0.71,0.05 -0.99,0.05 -0.88,-0.02 -1.55,-0.23 -2.02,-0.61 -0.46,-0.38 -0.75,-0.9 -0.87,-1.55l-0.11 -1.01c-0.81,1.07 -1.8,1.88 -2.96,2.43 -1.16,0.56 -2.4,0.83 -3.72,0.83zm1.32 -3.41c0.79,0 1.53,-0.14 2.24,-0.42 0.71,-0.28 1.26,-0.65 1.65,-1.11 0.51,-0.39 0.76,-0.84 0.76,-1.32l0 -2.09c-0.56,-0.21 -1.16,-0.38 -1.81,-0.5 -0.65,-0.13 -1.28,-0.19 -1.88,-0.19 -1.21,0 -2.19,0.27 -2.96,0.82 -0.76,0.54 -1.15,1.23 -1.15,2.07 0,0.79 0.3,1.44 0.9,1.96 0.6,0.52 1.34,0.78 2.23,0.78z"/>
  <path id="_3" class="fil0" d="M78.1 112.29c-0.74,0 -1.51,-0.06 -2.31,-0.17 -0.8,-0.12 -1.58,-0.28 -2.35,-0.49 -0.76,-0.21 -1.49,-0.46 -2.19,-0.76 -0.7,-0.3 -1.31,-0.64 -1.84,-1.01l1.88 -3.16c2.32,1.51 4.56,2.26 6.71,2.26 0.97,0 1.74,-0.17 2.29,-0.52 0.56,-0.35 0.84,-0.85 0.84,-1.5 0,-0.65 -0.33,-1.13 -0.99,-1.44 -0.66,-0.31 -1.77,-0.65 -3.32,-1.03 -1.18,-0.28 -2.19,-0.57 -3.03,-0.87 -0.83,-0.3 -1.51,-0.65 -2.02,-1.04 -0.51,-0.39 -0.88,-0.85 -1.11,-1.36 -0.23,-0.51 -0.35,-1.11 -0.35,-1.81 0,-0.93 0.19,-1.76 0.56,-2.5 0.37,-0.74 0.89,-1.37 1.55,-1.9 0.66,-0.52 1.44,-0.92 2.33,-1.2 0.89,-0.28 1.86,-0.42 2.91,-0.42 1.3,0 2.59,0.2 3.88,0.61 1.29,0.41 2.49,0.96 3.6,1.65l-1.91 2.89c-1.02,-0.65 -1.98,-1.12 -2.89,-1.41 -0.9,-0.29 -1.81,-0.43 -2.71,-0.43 -0.83,0 -1.53,0.16 -2.1,0.49 -0.57,0.33 -0.85,0.85 -0.85,1.56 0,0.63 0.27,1.08 0.82,1.36 0.55,0.28 1.51,0.59 2.91,0.94 1.3,0.32 2.4,0.65 3.32,0.97 0.92,0.32 1.67,0.69 2.26,1.11 0.59,0.42 1.02,0.9 1.29,1.44 0.27,0.54 0.4,1.2 0.4,1.96 0,0.88 -0.18,1.68 -0.54,2.4 -0.36,0.72 -0.86,1.33 -1.51,1.83 -0.65,0.5 -1.44,0.88 -2.38,1.15 -0.94,0.27 -1.98,0.4 -3.11,0.4z"/>
  <polygon id="_4" class="fil0" points="101.02,111.94 95.73,104.05 93.23,106.51 93.23,111.94 88.57,111.94 88.57,86.55 93.23,86.55 93.23,101.96 100.53,93.75 105.5,93.75 98.68,101.47 105.99,111.94 "/>
 </g>
</svg>
