<?xml version="1.0" encoding="UTF-8"?>
<!DOCTYPE svg PUBLIC "-//W3C//DTD SVG 1.1//EN" "http://www.w3.org/Graphics/SVG/1.1/DTD/svg11.dtd">
<!-- Creator: CorelDRAW -->
<svg xmlns="http://www.w3.org/2000/svg" xml:space="preserve" width="47.625mm" height="47.625mm" version="1.1" style="shape-rendering:geometricPrecision; text-rendering:geometricPrecision; image-rendering:optimizeQuality; fill-rule:evenodd; clip-rule:evenodd"
viewBox="0 0 726.5 726.5"
 xmlns:xlink="http://www.w3.org/1999/xlink"
 xmlns:xodm="http://www.corel.com/coreldraw/odm/2003">
 <defs>
  <style type="text/css">
   <![CDATA[
    .fil0 {fill:white}
   ]]>
  </style>
 </defs>
 <g id="Camada_x0020_1">
  <metadata id="CorelCorpID_0Corel-Layer"/>
  <path class="fil0" d="M363.25 0c200.62,0 363.25,162.63 363.25,363.25 0,200.62 -162.63,363.25 -363.25,363.25 -200.62,0 -363.25,-162.63 -363.25,-363.25 0,-200.62 162.63,-363.25 363.25,-363.25zm28.11 313.69c5.96,-6.7 10.88,-13.51 17.01,-19.28 18.84,-17.75 41.12,-26.71 67.13,-26.49 14.3,0.12 28.44,1.15 42.22,5.14 31.53,9.12 49.85,30.82 58.59,61.62 6.55,23.1 7.76,46.81 7.8,70.6 0.09,50.18 -0.14,100.36 -0.04,150.54 0.01,4.7 -1.3,5.93 -5.93,5.89 -25.85,-0.21 -51.71,-0.22 -77.55,0.01 -4.55,0.04 -5.53,-1.37 -5.52,-5.67 0.14,-47.75 0.18,-95.49 0.03,-143.24 -0.04,-11.96 -0.8,-23.92 -4.16,-35.56 -6.18,-21.43 -21.52,-32.35 -43.97,-31.16 -30.66,1.62 -46.6,16.8 -50.5,47.97 -0.94,7.45 -1.38,14.9 -1.37,22.4 0.04,46.44 -0.05,92.87 0.12,139.3 0.02,4.63 -1.14,6 -5.87,5.96 -26.04,-0.23 -52.08,-0.2 -78.12,-0.02 -4.17,0.03 -5.38,-1.09 -5.38,-5.32 0.12,-91.93 0.12,-183.87 -0,-275.81 -0.01,-4.55 1.48,-5.6 5.78,-5.57 24.73,0.18 49.46,0.2 74.18,-0.02 4.55,-0.04 5.73,1.43 5.62,5.74 -0.25,10.98 -0.08,21.98 -0.08,32.97zm-134.51 -129.95c0.02,28.55 -23.16,51.82 -51.64,51.83 -28.13,0.01 -51.5,-23.28 -51.59,-51.39 -0.1,-28.42 23.26,-51.82 51.69,-51.8 28.24,0.03 51.51,23.22 51.54,51.36zm-7.13 235.01c0,45.48 -0.07,90.96 0.11,136.45 0.02,5.05 -1.24,6.58 -6.47,6.52 -25.84,-0.29 -51.68,-0.22 -77.53,-0.04 -4.14,0.03 -5.39,-1.01 -5.38,-5.28 0.12,-92.09 0.11,-184.18 0.02,-276.26 -0,-3.81 0.92,-5.17 4.97,-5.15 26.21,0.17 52.43,0.22 78.64,-0.03 5.04,-0.05 5.73,1.91 5.72,6.22 -0.12,45.86 -0.08,91.71 -0.08,137.57z"/>
 </g>
</svg>
