<?xml version="1.0" encoding="UTF-8"?>
<!DOCTYPE svg PUBLIC "-//W3C//DTD SVG 1.1//EN" "http://www.w3.org/Graphics/SVG/1.1/DTD/svg11.dtd">
<!-- Creator: CorelDRAW -->
<svg xmlns="http://www.w3.org/2000/svg" xml:space="preserve" width="8.5146mm" height="8.5146mm" version="1.1" style="shape-rendering:geometricPrecision; text-rendering:geometricPrecision; image-rendering:optimizeQuality; fill-rule:evenodd; clip-rule:evenodd"
viewBox="0 0 9.36 9.36"
 xmlns:xlink="http://www.w3.org/1999/xlink"
 xmlns:xodm="http://www.corel.com/coreldraw/odm/2003">
 <defs>
  <style type="text/css">
   <![CDATA[
    .fil0 {fill:none}
    .fil2 {fill:#CCCCCC;fill-rule:nonzero}
    .fil1 {fill:white;fill-rule:nonzero}
   ]]>
  </style>
 </defs>
 <g id="Camada_x0020_1">
  <metadata id="CorelCorpID_0Corel-Layer"/>
  <g id="_2650375184448">
   <rect class="fil0" y="0" width="9.36" height="9.36"/>
   <path class="fil1" d="M0.96 6.39l0.3 0 0 -1.1 0.41 0.94c0.05,0.12 0.12,0.16 0.26,0.16 0.14,0 0.2,-0.04 0.25,-0.16l0.41 -0.92 0 1.08 0.3 0 0 -1.13c0,-0.11 -0.04,-0.16 -0.13,-0.19 -0.21,-0.07 -0.35,-0.01 -0.42,0.14l-0.42 0.96 -0.41 -0.96c-0.06,-0.14 -0.21,-0.2 -0.42,-0.14 -0.09,0.03 -0.13,0.08 -0.13,0.19l0 1.13 0 0 0 0z"/>
   <path class="fil1" d="M3.04 5.5l0.3 0 0 0.63c-0,0.03 0.01,0.11 0.15,0.12 0.07,0 0.44,0 0.44,0l0 -0.74 0.3 0c0,0 0,0.93 0,0.93 0,0.23 -0.28,0.26 -0.41,0.26l-0.78 0 0 -0.15c0,0 0.74,0 0.74,0 0.17,-0.02 0.15,-0.11 0.15,-0.14l0 -0.01 -0.47 0c-0.26,-0 -0.42,-0.12 -0.43,-0.25 -0,-0.01 0.01,-0.64 -0,-0.65z"/>
   <path class="fil2" d="M4.38 6.39l0.75 0c0.1,0 0.19,-0.02 0.27,-0.06 0.13,-0.06 0.18,-0.14 0.18,-0.24l0 -0.21c0,-0.23 -0.28,-0.24 -0.45,-0.24l-0.3 0c-0.12,0 -0.14,-0.07 -0.15,-0.15l0 -0.15c0.01,-0.06 0.04,-0.14 0.14,-0.15 0.12,0 0.75,0 0.75,0l0 -0.15 -0.71 0c-0.12,0 -0.48,0.01 -0.48,0.3l0 0.18c0,0.13 0.11,0.24 0.36,0.26 0.03,0 0.06,0 0.08,0 0,0 0.29,-0.01 0.3,-0 0.17,0 0.15,0.13 0.15,0.15l0 0.15c0,0.02 -0,0.15 -0.15,0.15 -0.01,0 -0.74,0 -0.74,0l0 0.15 0 0z"/>
   <path class="fil2" d="M7.21 6.09c0,0.18 0.1,0.28 0.37,0.3 0.03,0 0.05,0 0.08,0l0.74 0 0 -0.15 -0.69 0c-0.15,0 -0.21,-0.06 -0.21,-0.16l0 -1.03 -0.3 0 0 1.04z"/>
   <path class="fil2" d="M5.72 6.1l0 -0.74c0,-0.16 0.08,-0.27 0.3,-0.3l0.1 0 0.53 0 0.08 0c0.22,0.03 0.32,0.14 0.32,0.3l0 0.74c0,0.13 -0.03,0.2 -0.14,0.24l0.23 0.21 -0.34 0 -0.17 -0.15 -0.2 0 -0.33 0c-0.05,0 -0.1,-0.01 -0.15,-0.02 -0.17,-0.05 -0.25,-0.13 -0.25,-0.28zm0.3 0c0.02,0.07 0.07,0.15 0.18,0.15l0.29 0 -0.17 -0.15 0.34 0 0.08 0.07c0,0 0.03,-0.02 0.03,-0.07 0,-0.05 -0,-0.74 -0,-0.74 -0.02,-0.07 -0.08,-0.15 -0.18,-0.15l-0.38 0c-0.12,0 -0.18,0.08 -0.18,0.16l-0 0.73 0 0z"/>
   <path class="fil1" d="M8.13 4.9c-0.16,-0 -0.28,0.01 -0.39,0.05 -0.03,0.01 -0.08,0.01 -0.08,0.05 0.02,0.02 0.02,0.04 0.03,0.06 0.02,0.04 0.07,0.09 0.1,0.12 0.04,0.03 0.08,0.06 0.13,0.09 0.08,0.05 0.17,0.07 0.24,0.12 0.04,0.03 0.09,0.06 0.13,0.1 0.02,0.02 0.04,0.04 0.06,0.05 0,-0 0,-0 0,-0 -0.01,-0.02 -0.02,-0.04 -0.03,-0.06 -0.02,-0.02 -0.04,-0.04 -0.06,-0.06 -0.06,-0.08 -0.13,-0.14 -0.21,-0.2 -0.06,-0.04 -0.2,-0.11 -0.23,-0.18 -0,-0 -0,-0 -0,-0 0.04,-0 0.1,-0.02 0.14,-0.03 0.07,-0.02 0.13,-0.01 0.2,-0.03 0.03,-0.01 0.06,-0.02 0.1,-0.03 0,-0.01 0,-0.01 0,-0.02 -0.04,-0.04 -0.06,-0.08 -0.1,-0.12 -0.1,-0.09 -0.21,-0.17 -0.33,-0.25 -0.06,-0.04 -0.14,-0.07 -0.21,-0.1 -0.02,-0.01 -0.06,-0.02 -0.08,-0.04 -0.04,-0.05 -0.05,-0.1 -0.08,-0.15 -0.06,-0.11 -0.11,-0.23 -0.16,-0.35 -0.03,-0.08 -0.06,-0.16 -0.1,-0.23 -0.21,-0.34 -0.43,-0.54 -0.77,-0.75 -0.07,-0.04 -0.16,-0.06 -0.25,-0.08 -0.05,-0 -0.1,-0.01 -0.15,-0.01 -0.03,-0.01 -0.06,-0.05 -0.09,-0.07 -0.11,-0.07 -0.41,-0.23 -0.49,-0.02 -0.05,0.13 0.08,0.26 0.13,0.32 0.03,0.05 0.08,0.1 0.1,0.15 0.02,0.03 0.02,0.07 0.03,0.1 0.03,0.09 0.09,0.19 0.13,0.27 0.02,0.04 0.05,0.09 0.07,0.12 0.02,0.02 0.05,0.03 0.05,0.07 -0.03,0.04 -0.03,0.1 -0.05,0.15 -0.07,0.22 -0.04,0.5 0.06,0.67 0.03,0.05 0.11,0.16 0.21,0.12 0.09,-0.04 0.07,-0.15 0.1,-0.25 0.01,-0.02 0,-0.04 0.01,-0.05 0,0 0,0 0,0 0.03,0.05 0.05,0.11 0.08,0.16 0.06,0.1 0.17,0.2 0.26,0.27 0.05,0.04 0.08,0.1 0.15,0.12 0,-0 0,-0 0,-0 -0,0 -0,0 -0,0 -0.01,-0.02 -0.03,-0.03 -0.05,-0.04 -0.04,-0.03 -0.08,-0.08 -0.1,-0.12 -0.08,-0.11 -0.16,-0.24 -0.22,-0.36 -0.03,-0.06 -0.06,-0.13 -0.09,-0.19 -0.01,-0.02 -0.01,-0.06 -0.03,-0.07 -0.03,0.05 -0.07,0.08 -0.1,0.14 -0.04,0.09 -0.04,0.19 -0.05,0.3 -0.01,0 -0,0 -0.01,0 -0.06,-0.02 -0.09,-0.08 -0.11,-0.14 -0.06,-0.14 -0.07,-0.37 -0.02,-0.53 0.01,-0.04 0.07,-0.17 0.05,-0.21 -0.01,-0.04 -0.05,-0.06 -0.07,-0.09 -0.03,-0.04 -0.05,-0.09 -0.07,-0.13 -0.05,-0.11 -0.09,-0.24 -0.15,-0.35 -0.02,-0.05 -0.07,-0.11 -0.1,-0.15 -0.04,-0.05 -0.08,-0.09 -0.11,-0.15 -0.01,-0.02 -0.02,-0.06 -0.01,-0.08 0,-0.02 0.01,-0.02 0.03,-0.03 0.03,-0.02 0.1,0.01 0.13,0.02 0.07,0.03 0.13,0.06 0.2,0.1 0.03,0.02 0.06,0.06 0.1,0.07 0.01,0 0.03,0 0.04,0 0.06,0.01 0.14,0 0.2,0.02 0.11,0.03 0.2,0.08 0.29,0.14 0.26,0.17 0.48,0.4 0.62,0.68 0.02,0.05 0.03,0.09 0.05,0.14 0.04,0.1 0.09,0.2 0.14,0.29 0.04,0.09 0.08,0.19 0.14,0.27 0.03,0.04 0.15,0.06 0.2,0.09 0.04,0.02 0.1,0.03 0.14,0.05 0.07,0.04 0.14,0.09 0.2,0.14 0.03,0.02 0.13,0.07 0.14,0.11z"/>
   <path class="fil1" d="M6.09 3.16c-0.03,-0 -0.06,0 -0.08,0.01 0,0 0,0 0,0 0,0 0,0 0,0 0.02,0.03 0.04,0.05 0.06,0.08 0.02,0.03 0.03,0.06 0.05,0.1 0,-0 0,-0 0,-0 0.03,-0.02 0.04,-0.05 0.04,-0.1 -0.01,-0.01 -0.01,-0.03 -0.02,-0.04 -0.01,-0.02 -0.04,-0.03 -0.05,-0.05z"/>
  </g>
 </g>
</svg>
