<?xml version="1.0" encoding="UTF-8"?>
<!DOCTYPE svg PUBLIC "-//W3C//DTD SVG 1.1//EN" "http://www.w3.org/Graphics/SVG/1.1/DTD/svg11.dtd">
<!-- Creator: CorelDRAW -->
<svg xmlns="http://www.w3.org/2000/svg" xml:space="preserve" width="8.5146mm" height="8.5146mm" version="1.1" style="shape-rendering:geometricPrecision; text-rendering:geometricPrecision; image-rendering:optimizeQuality; fill-rule:evenodd; clip-rule:evenodd"
viewBox="0 0 9.14 9.14"
 xmlns:xlink="http://www.w3.org/1999/xlink"
 xmlns:xodm="http://www.corel.com/coreldraw/odm/2003">
 <defs>
  <style type="text/css">
   <![CDATA[
    .fil0 {fill:none}
    .fil3 {fill:#CCCCCC;fill-rule:nonzero}
    .fil1 {fill:#E6E6E6;fill-rule:nonzero}
    .fil2 {fill:white;fill-rule:nonzero}
   ]]>
  </style>
 </defs>
 <g id="Camada_x0020_1">
  <metadata id="CorelCorpID_0Corel-Layer"/>
  <g id="_2650375182384">
   <rect class="fil0" y="0" width="9.14" height="9.14"/>
   <g>
    <path class="fil1" d="M3.54 4.21l-0.74 0.41c-0.03,0.02 -0.04,0.04 -0.04,0.07l0 0.82c0,0.03 0.02,0.06 0.04,0.07l0.74 0.41c0.03,0.02 0.06,0.02 0.09,0l0.74 -0.41c0.03,-0.02 0.04,-0.04 0.04,-0.07l0 -0.82c0,-0.03 -0.02,-0.06 -0.04,-0.07l-0.74 -0.41c-0.01,-0.01 -0.03,-0.01 -0.04,-0.01 -0.02,0 -0.03,0 -0.04,0.01l0 0zm3.82 0.74l-0.12 0.07c-0,0 -0.01,0.01 -0.01,0.01l0 0.14c0,0.01 0,0.01 0.01,0.01l0.12 0.07c0,0 0.01,0 0.01,0l0.12 -0.07c0,-0 0.01,-0.01 0.01,-0.01l0 -0.14c0,-0.01 -0,-0.01 -0.01,-0.01l-0.12 -0.07c-0,-0 -0,-0 -0.01,-0 -0,0 -0.01,0 -0.01,0z"/>
   </g>
   <path class="fil2" d="M6.35 3.33l-0.36 -0.2c-0.01,-0.01 -0.03,-0.01 -0.04,0 -0.01,0.01 -0.02,0.02 -0.02,0.03l-0 1.22 -0.33 -0.18c-0.01,-0.01 -0.03,-0.01 -0.04,-0.01 -0.02,0 -0.03,0 -0.04,0.01l0 0 -0.74 0.41c-0.03,0.02 -0.04,0.04 -0.04,0.07l0 0.82c0,0.03 0.02,0.06 0.05,0.07l0.74 0.41c0.03,0.02 0.06,0.02 0.09,0l0.74 -0.41c0.03,-0.02 0.04,-0.04 0.04,-0.07l0 -2.11c0,-0.03 -0.01,-0.05 -0.04,-0.06zm-0.44 1.98l-0.34 0.19c-0.01,0.01 -0.03,0.01 -0.04,0l-0.34 -0.19c-0.01,-0.01 -0.02,-0.02 -0.02,-0.03l0 -0.37c0,-0.01 0.01,-0.03 0.02,-0.03l0.34 -0.19 -0 0c0.01,-0 0.01,-0.01 0.02,-0.01 0.01,0 0.01,0 0.02,0.01l0.34 0.19c0.01,0.01 0.02,0.02 0.02,0.03l0 0.37c0,0.01 -0.01,0.03 -0.02,0.03z"/>
   <g>
    <path class="fil3" d="M3.54 4.21l-0.79 1.31c0,0.03 0.02,0.06 0.04,0.07l0.74 0.41c0.03,0.02 0.06,0.02 0.09,0l0.79 -1.31c0,-0.03 -0.02,-0.06 -0.04,-0.07l-0.74 -0.41c-0.01,-0.01 -0.03,-0.01 -0.04,-0.01 -0.02,0 -0.03,0 -0.04,0.01l0 0zm0 0l0 0 0 0z"/>
   </g>
   <g>
    <path class="fil2" d="M3.54 4.21l-0.74 0.41c-0.03,0.02 -0.04,0.04 -0.04,0.07l0.79 1.31c0.03,0.02 0.06,0.02 0.09,0l0.74 -0.41c0.03,-0.02 0.04,-0.04 0.04,-0.07l-0.79 -1.31c-0.01,-0.01 -0.03,-0.01 -0.04,-0.01 -0.02,0 -0.03,0 -0.04,0.01l0 0zm0 0l0 0 0 0z"/>
   </g>
   <path class="fil2" d="M8.16 4.61l-0.74 -0.41c-0.01,-0.01 -0.03,-0.01 -0.04,-0.01 -0.02,0 -0.03,0 -0.05,0.01l0 0 -0.74 0.41c-0.03,0.02 -0.04,0.04 -0.04,0.08l0 0.82c0,0.03 0.02,0.06 0.04,0.08l0.74 0.41c0.03,0.02 0.06,0.02 0.09,0l0.34 -0.19c0.03,-0.02 0.03,-0.06 -0,-0.08l-0.75 -0.41c-0.01,-0.01 -0.02,-0.02 -0.02,-0.03l0 -0.37c0,-0.01 0.01,-0.03 0.02,-0.03l0.34 -0.19 -0 0c0.01,-0 0.01,-0.01 0.02,-0.01 0.01,0 0.01,0 0.02,0.01l0.34 0.19c0.01,0.01 0.02,0.02 0.02,0.03l0 0.3c0,0.01 0.01,0.03 0.02,0.03 0.01,0.01 0.03,0.01 0.04,-0l0.36 -0.21c0.02,-0.01 0.04,-0.04 0.04,-0.06l0 -0.28c0,-0.03 -0.02,-0.06 -0.04,-0.08zm-5.61 0l-0.74 -0.41c-0.01,-0.01 -0.03,-0.01 -0.04,-0.01 -0.02,0 -0.03,0 -0.04,0.01l0 0 -0.74 0.41c-0.03,0.02 -0.04,0.04 -0.04,0.08l0 1.13c0,0.01 0.01,0.03 0.02,0.03 0.01,0.01 0.03,0.01 0.04,-0l0.36 -0.21c0.02,-0.01 0.04,-0.04 0.04,-0.06l0 -0.67c0,-0.01 0.01,-0.03 0.02,-0.03l0.34 -0.19 0 -0c0.01,-0 0.01,-0.01 0.02,-0.01 0.01,0 0.01,0 0.02,0.01l0.34 0.19c0.01,0.01 0.02,0.02 0.02,0.03l0 0.67c0,0.03 0.01,0.05 0.04,0.06l0.36 0.21c0.01,0.01 0.03,0.01 0.04,0 0.01,-0.01 0.02,-0.02 0.02,-0.03l0 -1.13c0,-0.03 -0.02,-0.06 -0.04,-0.08z"/>
  </g>
 </g>
</svg>
