<?xml version="1.0" encoding="UTF-8"?>
<!DOCTYPE svg PUBLIC "-//W3C//DTD SVG 1.1//EN" "http://www.w3.org/Graphics/SVG/1.1/DTD/svg11.dtd">
<!-- Creator: CorelDRAW -->
<svg xmlns="http://www.w3.org/2000/svg" xml:space="preserve" width="8.5146mm" height="8.5146mm" version="1.1" style="shape-rendering:geometricPrecision; text-rendering:geometricPrecision; image-rendering:optimizeQuality; fill-rule:evenodd; clip-rule:evenodd"
viewBox="0 0 9.14 9.14"
 xmlns:xlink="http://www.w3.org/1999/xlink"
 xmlns:xodm="http://www.corel.com/coreldraw/odm/2003">
 <defs>
  <style type="text/css">
   <![CDATA[
    .fil0 {fill:none}
    .fil1 {fill:white;fill-rule:nonzero}
   ]]>
  </style>
 </defs>
 <g id="Camada_x0020_1">
  <metadata id="CorelCorpID_0Corel-Layer"/>
  <g id="_2650375148448">
   <rect class="fil0" y="0" width="9.14" height="9.14"/>
   <path class="fil1" d="M5.65 3.46c0,0.01 -0,0.02 0,0.02 0.14,0.22 0.27,0.44 0.39,0.67 0.01,0.01 0.01,0.03 0.02,0.02 0.01,-0 0.02,-0.02 0.02,-0.03 0.07,-0.17 0.13,-0.35 0.19,-0.52 0.01,-0.03 0,-0.05 -0.03,-0.06 -0.19,-0.04 -0.39,-0.08 -0.59,-0.1zm-1.08 1.76c-0.36,0 -0.65,-0.29 -0.66,-0.65 -0,-0.37 0.29,-0.66 0.66,-0.66 0.36,0 0.65,0.29 0.65,0.65 0,0.36 -0.29,0.65 -0.65,0.65zm1.07 0.45c0.21,-0.02 0.41,-0.06 0.61,-0.11 0.04,-0.01 0.03,-0.04 0.02,-0.07 -0.05,-0.17 -0.12,-0.34 -0.18,-0.51 -0.01,-0.01 -0.01,-0.04 -0.03,-0.04 -0.02,-0 -0.02,0.02 -0.03,0.04 -0.1,0.18 -0.2,0.36 -0.31,0.53 -0.03,0.04 -0.05,0.09 -0.08,0.14zm-2.13 0c-0.15,-0.24 -0.28,-0.46 -0.4,-0.7 -0.02,-0.04 -0.03,-0.02 -0.04,0.01 -0.07,0.18 -0.14,0.35 -0.19,0.53 -0.01,0.03 0,0.05 0.03,0.05 0.2,0.04 0.39,0.08 0.61,0.1zm-0 -2.21c-0.21,0.02 -0.4,0.06 -0.59,0.1 -0.05,0.01 -0.06,0.03 -0.04,0.08 0.06,0.17 0.11,0.34 0.18,0.5 0.01,0.01 0.01,0.04 0.03,0.04 0.02,0 0.02,-0.02 0.03,-0.03 0.1,-0.19 0.21,-0.38 0.32,-0.56 0.02,-0.04 0.04,-0.07 0.07,-0.12zm0.77 2.58c-0.03,0 -0.04,-0 -0.06,0 -0.02,0 -0.04,-0.01 -0.05,0.01 -0.01,0.02 0.01,0.03 0.02,0.05 0.11,0.14 0.23,0.28 0.34,0.41 0.02,0.03 0.04,0.04 0.07,0.01 0.12,-0.14 0.24,-0.27 0.35,-0.42 0.01,-0.01 0.03,-0.03 0.02,-0.05 -0.01,-0.02 -0.03,-0.01 -0.05,-0.01 -0.22,0.01 -0.45,0.02 -0.65,-0zm0.59 -2.95c0.03,0 0.05,0 0.06,-0 0.02,-0 0.04,0.01 0.06,-0.01 0.01,-0.02 -0.01,-0.04 -0.03,-0.05 -0.11,-0.14 -0.23,-0.28 -0.35,-0.42 -0.02,-0.03 -0.04,-0.03 -0.06,-0 -0.12,0.14 -0.25,0.28 -0.36,0.43 -0.01,0.01 -0.02,0.02 -0.02,0.04 0.01,0.02 0.03,0.01 0.04,0.01 0.08,-0 0.17,-0.01 0.25,-0.01 0.14,-0 0.28,-0.01 0.4,0.01zm3.03 1.48c0,-0.04 -0.01,-0.08 -0.02,-0.12 -0.05,-0.14 -0.15,-0.23 -0.26,-0.32 -0.29,-0.23 -0.63,-0.36 -0.98,-0.47 -0.04,-0.01 -0.05,0 -0.06,0.03 -0.09,0.27 -0.19,0.54 -0.31,0.8 -0.02,0.04 -0.02,0.08 -0,0.13 0.12,0.26 0.22,0.52 0.3,0.79 0.02,0.05 0.04,0.06 0.09,0.05 0.23,-0.07 0.46,-0.16 0.68,-0.28 0.16,-0.09 0.31,-0.19 0.43,-0.33 0.07,-0.08 0.13,-0.18 0.13,-0.29zm-6.65 -0.01c0,0.07 0.02,0.14 0.06,0.21 0.09,0.14 0.22,0.24 0.36,0.33 0.26,0.17 0.55,0.27 0.84,0.37 0.04,0.01 0.05,0 0.07,-0.03 0.09,-0.27 0.18,-0.54 0.3,-0.79 0.02,-0.05 0.02,-0.1 -0,-0.15 -0.12,-0.25 -0.22,-0.52 -0.3,-0.78 -0.01,-0.04 -0.03,-0.05 -0.07,-0.04 -0.24,0.08 -0.47,0.16 -0.69,0.28 -0.16,0.09 -0.31,0.19 -0.43,0.33 -0.07,0.08 -0.13,0.17 -0.13,0.29zm5.25 2.16c-0.01,-0.28 -0.05,-0.54 -0.11,-0.8 -0.01,-0.05 -0.03,-0.06 -0.08,-0.05 -0.28,0.07 -0.57,0.11 -0.86,0.14 -0.03,0 -0.05,0.01 -0.06,0.04 -0.17,0.24 -0.35,0.46 -0.55,0.68 -0.03,0.04 -0.04,0.06 0,0.1 0.18,0.16 0.35,0.31 0.55,0.43 0.18,0.11 0.36,0.2 0.56,0.24 0.21,0.03 0.35,-0.04 0.44,-0.23 0.09,-0.18 0.09,-0.37 0.1,-0.54zm-3.84 -4.32c0.01,0.28 0.05,0.55 0.1,0.81 0.01,0.05 0.04,0.06 0.09,0.05 0.27,-0.06 0.55,-0.1 0.83,-0.13 0.04,-0 0.07,-0.02 0.1,-0.05 0.17,-0.23 0.34,-0.46 0.54,-0.66 0.03,-0.04 0.04,-0.06 -0,-0.1 -0.18,-0.16 -0.36,-0.31 -0.56,-0.43 -0.17,-0.11 -0.36,-0.2 -0.56,-0.24 -0.2,-0.03 -0.34,0.04 -0.44,0.22 -0.09,0.17 -0.09,0.37 -0.1,0.54zm-0 4.33c-0.01,0.05 0.01,0.11 0.01,0.18 0.01,0.14 0.04,0.27 0.11,0.39 0.07,0.12 0.17,0.19 0.32,0.19 0.12,0 0.23,-0.03 0.33,-0.07 0.34,-0.14 0.63,-0.37 0.9,-0.62 0.03,-0.03 0.03,-0.05 0,-0.07 -0.03,-0.04 -0.07,-0.07 -0.1,-0.11 -0.16,-0.18 -0.32,-0.38 -0.46,-0.58 -0.02,-0.02 -0.03,-0.04 -0.06,-0.04 -0.29,-0.03 -0.58,-0.07 -0.87,-0.14 -0.04,-0.01 -0.06,0 -0.07,0.05 -0.06,0.26 -0.1,0.53 -0.11,0.82zm3.85 -4.33c0.01,-0.05 -0.01,-0.12 -0.01,-0.18 -0.01,-0.14 -0.04,-0.27 -0.11,-0.39 -0.07,-0.12 -0.17,-0.19 -0.32,-0.19 -0.12,-0 -0.23,0.03 -0.34,0.07 -0.34,0.14 -0.62,0.37 -0.89,0.61 -0.03,0.03 -0.03,0.05 -0,0.08 0.03,0.04 0.07,0.07 0.1,0.11 0.16,0.18 0.32,0.38 0.46,0.58 0.02,0.02 0.04,0.04 0.07,0.04 0.29,0.03 0.58,0.07 0.86,0.14 0.05,0.01 0.07,-0 0.08,-0.05 0.06,-0.26 0.1,-0.52 0.11,-0.81zm-1.92 3.33c0.19,0.01 0.37,-0 0.56,-0.01 0.07,-0 0.12,-0.03 0.16,-0.09 0.22,-0.33 0.41,-0.67 0.58,-1.02 0.02,-0.04 0.02,-0.07 0,-0.11 -0.18,-0.35 -0.37,-0.69 -0.59,-1.02 -0.04,-0.06 -0.08,-0.08 -0.15,-0.09 -0.38,-0.02 -0.76,-0.02 -1.14,0 -0.06,0 -0.11,0.03 -0.14,0.08 -0.22,0.33 -0.41,0.67 -0.59,1.02 -0.02,0.04 -0.02,0.07 -0,0.11 0.17,0.35 0.37,0.69 0.58,1.02 0.04,0.06 0.09,0.09 0.16,0.09 0.19,0.01 0.37,0.02 0.56,0.01zm2.23 -3.2c-0,0.19 -0.05,0.47 -0.11,0.74 -0.02,0.07 -0.01,0.08 0.06,0.1 0.36,0.11 0.71,0.25 1.02,0.48 0.1,0.08 0.2,0.16 0.27,0.26 0.23,0.31 0.21,0.66 -0.05,0.94 -0.23,0.25 -0.51,0.4 -0.82,0.53 -0.14,0.06 -0.28,0.11 -0.43,0.15 -0.06,0.01 -0.07,0.04 -0.05,0.1 0.08,0.32 0.12,0.64 0.11,0.96 -0.01,0.22 -0.05,0.43 -0.15,0.63 -0.13,0.25 -0.39,0.38 -0.67,0.35 -0.34,-0.03 -0.62,-0.19 -0.9,-0.38 -0.17,-0.12 -0.32,-0.25 -0.47,-0.39 -0.03,-0.03 -0.05,-0.03 -0.08,0 -0.24,0.22 -0.49,0.43 -0.78,0.58 -0.2,0.11 -0.41,0.19 -0.63,0.19 -0.27,0 -0.48,-0.11 -0.61,-0.35 -0.11,-0.2 -0.15,-0.41 -0.15,-0.63 -0.01,-0.33 0.03,-0.65 0.11,-0.96 0.01,-0.06 0,-0.08 -0.06,-0.1 -0.37,-0.11 -0.72,-0.25 -1.03,-0.49 -0.16,-0.12 -0.3,-0.26 -0.38,-0.45 -0.09,-0.22 -0.06,-0.42 0.06,-0.62 0.13,-0.21 0.32,-0.35 0.52,-0.47 0.26,-0.15 0.54,-0.27 0.83,-0.35 0.06,-0.02 0.07,-0.04 0.06,-0.1 -0.08,-0.32 -0.12,-0.64 -0.11,-0.97 0.01,-0.27 0.06,-0.53 0.23,-0.74 0.11,-0.14 0.25,-0.21 0.42,-0.23 0.27,-0.03 0.51,0.06 0.74,0.18 0.29,0.15 0.54,0.36 0.78,0.58 0.04,0.03 0.06,0.03 0.09,-0 0.24,-0.23 0.5,-0.43 0.8,-0.59 0.19,-0.1 0.39,-0.17 0.6,-0.18 0.27,-0 0.48,0.11 0.62,0.35 0.13,0.24 0.16,0.5 0.16,0.85z"/>
  </g>
 </g>
</svg>
