<?xml version="1.0" encoding="UTF-8"?>
<!DOCTYPE svg PUBLIC "-//W3C//DTD SVG 1.1//EN" "http://www.w3.org/Graphics/SVG/1.1/DTD/svg11.dtd">
<!-- Creator: CorelDRAW -->
<svg xmlns="http://www.w3.org/2000/svg" xml:space="preserve" width="8.5146mm" height="8.5146mm" version="1.1" style="shape-rendering:geometricPrecision; text-rendering:geometricPrecision; image-rendering:optimizeQuality; fill-rule:evenodd; clip-rule:evenodd"
viewBox="0 0 9.36 9.36"
 xmlns:xlink="http://www.w3.org/1999/xlink"
 xmlns:xodm="http://www.corel.com/coreldraw/odm/2003">
 <defs>
  <style type="text/css">
   <![CDATA[
    .fil0 {fill:none}
    .fil1 {fill:white}
   ]]>
  </style>
 </defs>
 <g id="Camada_x0020_1">
  <metadata id="CorelCorpID_0Corel-Layer"/>
  <g id="_2650379368800">
   <rect class="fil0" y="0" width="9.36" height="9.36"/>
   <path class="fil1" d="M4.68 2.38c-0.89,0 -1.49,0.39 -1.8,1.17 -0.03,0.08 0.07,0.15 0.13,0.09 0.33,-0.3 0.69,-0.4 1.1,-0.3 0.29,0.07 0.5,0.28 0.73,0.52 0.38,0.38 0.81,0.82 1.76,0.82 0.89,0 1.49,-0.39 1.8,-1.17 0.03,-0.08 -0.07,-0.15 -0.13,-0.09 -0.33,0.3 -0.69,0.4 -1.1,0.3 -0.29,-0.07 -0.5,-0.28 -0.73,-0.52 -0.38,-0.38 -0.81,-0.82 -1.76,-0.82l0 0zm-1.92 2.3c-0.89,0 -1.49,0.39 -1.8,1.17 -0.03,0.08 0.07,0.15 0.13,0.09 0.33,-0.3 0.69,-0.4 1.1,-0.3 0.29,0.07 0.5,0.28 0.73,0.52 0.38,0.38 0.81,0.82 1.76,0.82 0.89,0 1.49,-0.39 1.8,-1.17 0.03,-0.08 -0.07,-0.15 -0.13,-0.09 -0.33,0.3 -0.69,0.4 -1.1,0.3 -0.29,-0.07 -0.5,-0.28 -0.73,-0.52 -0.38,-0.38 -0.81,-0.82 -1.76,-0.82l0 0z"/>
  </g>
 </g>
</svg>
