<?xml version="1.0" encoding="UTF-8"?>
<!DOCTYPE svg PUBLIC "-//W3C//DTD SVG 1.1//EN" "http://www.w3.org/Graphics/SVG/1.1/DTD/svg11.dtd">
<!-- Creator: CorelDRAW -->
<svg xmlns="http://www.w3.org/2000/svg" xml:space="preserve" width="47.6134mm" height="47.6134mm" version="1.1" style="shape-rendering:geometricPrecision; text-rendering:geometricPrecision; image-rendering:optimizeQuality; fill-rule:evenodd; clip-rule:evenodd"
viewBox="0 0 1109.61 1109.61"
 xmlns:xlink="http://www.w3.org/1999/xlink"
 xmlns:xodm="http://www.corel.com/coreldraw/odm/2003">
 <defs>
  <style type="text/css">
   <![CDATA[
    .fil0 {fill:white}
   ]]>
  </style>
 </defs>
 <g id="Camada_x0020_1">
  <metadata id="CorelCorpID_0Corel-Layer"/>
  <path class="fil0" d="M554.8 0c306.41,0 554.8,248.39 554.8,554.8 0,306.41 -248.39,554.8 -554.8,554.8 -306.41,0 -554.8,-248.39 -554.8,-554.8 0,-306.41 248.39,-554.8 554.8,-554.8zm161.98 616.94c-8.8,-4.4 -52.04,-25.67 -60.1,-28.61 -8.07,-2.93 -13.93,-4.4 -19.8,4.41 -5.85,8.8 -22.71,28.61 -27.85,34.48 -5.13,5.86 -10.26,6.6 -19.06,2.19 -8.8,-4.4 -37.14,-13.68 -70.74,-43.65 -26.15,-23.31 -43.8,-52.11 -48.93,-60.91 -5.13,-8.8 -0.55,-13.57 3.85,-17.95 3.95,-3.94 8.8,-10.27 13.2,-15.41 4.4,-5.13 5.86,-8.8 8.79,-14.67 2.94,-5.87 1.47,-11.01 -0.73,-15.41 -2.2,-4.41 -19.79,-47.68 -27.11,-65.29 -7.15,-17.14 -14.39,-14.82 -19.8,-15.09 -5.12,-0.26 -10.99,-0.31 -16.85,-0.31 -5.86,0 -15.39,2.2 -23.46,11 -8.07,8.81 -30.79,30.07 -30.79,73.36 0,43.28 31.52,85.09 35.92,90.96 4.4,5.87 62.02,94.69 150.26,132.78 20.99,9.06 37.37,14.47 50.15,18.52 21.07,6.69 40.25,5.75 55.4,3.49 16.89,-2.52 52.04,-21.28 59.37,-41.82 7.33,-20.54 7.33,-38.14 5.13,-41.8 -2.2,-3.67 -8.07,-5.87 -16.86,-10.28zm-160.5 219.07l-0.12 0c-52.5,-0.02 -103.99,-14.12 -148.92,-40.77l-10.69 -6.35 -110.74 29.04 29.56 -107.94 -6.96 -11.06c-29.28,-46.57 -44.76,-100.4 -44.73,-155.67 0.07,-161.28 131.33,-292.49 292.72,-292.49 78.15,0.03 151.63,30.5 206.87,85.78 55.24,55.3 85.64,128.79 85.63,206.95 -0.07,161.29 -131.34,292.51 -292.6,292.51zm249.02 -541.46c-66.46,-66.53 -154.86,-103.18 -249.02,-103.22 -194.05,0 -351.97,157.86 -352.05,351.91 -0.03,62.02 16.19,122.56 46.99,175.94l-49.94 182.36 186.62 -48.94c51.42,28.04 109.32,42.82 168.23,42.84l0.15 0c0.02,0 -0.01,0 0,0 194.01,0 351.95,-157.88 352.04,-351.92 0.03,-94.03 -36.54,-182.46 -103.01,-248.97z"/>
 </g>
</svg>
